<?xml version="1.0" encoding="utf-8"?>
<!-- Generator: Adobe Illustrator 16.0.0, SVG Export Plug-In . SVG Version: 6.00 Build 0)  -->
<!DOCTYPE svg PUBLIC "-//W3C//DTD SVG 1.1//EN" "http://www.w3.org/Graphics/SVG/1.1/DTD/svg11.dtd">
<svg version="1.1" id="Layer_1" xmlns="http://www.w3.org/2000/svg" xmlns:xlink="http://www.w3.org/1999/xlink" x="0px" y="0px"
	 width="20px" height="20px" viewBox="40 40 20 20" enable-background="new 40 40 20 20" xml:space="preserve">
<path fill="#FFFFFF" d="M58.929,53.002c-0.021-0.156-0.067-0.328-0.141-0.508s-0.177-0.369-0.31-0.562
	c-0.135-0.195-0.32-0.391-0.551-0.576c-0.229-0.184-0.512-0.363-0.841-0.531c-0.248-0.127-0.537-0.244-0.863-0.35
	c0.22-0.094,0.433-0.201,0.636-0.32c0.306-0.179,0.577-0.393,0.807-0.637c0.231-0.245,0.417-0.533,0.551-0.856
	c0.134-0.324,0.202-0.694,0.202-1.101c0-0.744-0.275-1.378-0.818-1.885c-0.495-0.462-1.199-0.82-2.095-1.064l0.149-0.145
	c0.1-0.096,0.149-0.215,0.149-0.355c0-0.119-0.048-0.217-0.138-0.283c-0.08-0.058-0.172-0.087-0.272-0.087
	c-0.067,0-0.141,0.02-0.236,0.069c-0.017,0.011-0.087,0.065-0.209,0.163c-0.115,0.091-0.259,0.231-0.438,0.428
	c-0.314-0.05-0.647-0.087-0.99-0.112c-0.821-0.06-1.738-0.062-2.756,0.069c-0.562,0.072-1.146,0.191-1.737,0.354
	c-0.589,0.16-1.19,0.371-1.789,0.624c-0.599,0.253-1.188,0.562-1.75,0.918c-0.564,0.356-1.11,0.776-1.622,1.248
	c-0.513,0.472-0.986,1.013-1.409,1.607c-0.443,0.634-0.782,1.267-1.007,1.882c-0.227,0.619-0.341,1.227-0.341,1.807
	c0,0.562,0.106,1.078,0.316,1.535c0.21,0.455,0.508,0.85,0.884,1.17c0.375,0.32,0.828,0.57,1.348,0.742
	c1.016,0.34,2.262,0.375,3.575-0.064c0.645-0.213,1.281-0.549,1.891-0.998c0.609-0.445,1.19-1.018,1.729-1.699
	c0.522-0.66,0.979-1.451,1.361-2.352c0.009,0.002,0.019,0.002,0.027,0.002h0.186c0.297,0,0.625-0.014,0.974-0.041
	c0.346-0.027,0.706-0.072,1.071-0.135c0.546,0.074,1.049,0.188,1.495,0.338c0.449,0.152,0.839,0.336,1.158,0.549
	c0.313,0.209,0.56,0.449,0.729,0.713c0.166,0.258,0.25,0.541,0.25,0.844c0,0.273-0.076,0.547-0.226,0.812
	c-0.151,0.27-0.389,0.516-0.707,0.732c-0.322,0.219-0.741,0.398-1.246,0.533c-0.507,0.137-1.124,0.205-1.835,0.205
	c-0.521,0-1.045-0.053-1.56-0.158c-0.516-0.104-1.024-0.262-1.519-0.469c-0.17-0.064-0.321-0.031-0.451,0.082
	c-0.091,0.08-0.138,0.188-0.138,0.312c0,0.182,0.095,0.322,0.268,0.393c0.583,0.244,1.169,0.422,1.74,0.531
	c0.571,0.107,1.132,0.162,1.668,0.162c0.329,0,0.684-0.023,1.052-0.068c0.368-0.047,0.734-0.121,1.088-0.221
	c0.354-0.102,0.697-0.232,1.021-0.391c0.328-0.16,0.621-0.359,0.87-0.59c0.251-0.236,0.453-0.51,0.602-0.816
	c0.149-0.311,0.225-0.666,0.225-1.059C58.958,53.285,58.948,53.154,58.929,53.002z M52.971,48.9
	c0.156-0.437,0.335-0.875,0.531-1.301c0.195-0.427,0.413-0.844,0.646-1.24c0.219-0.372,0.453-0.719,0.7-1.029
	c0.875,0.184,1.556,0.463,2.024,0.83c0.473,0.371,0.702,0.826,0.702,1.393c0,0.278-0.045,0.527-0.132,0.743
	c-0.089,0.218-0.209,0.415-0.358,0.591c-0.149,0.174-0.328,0.329-0.531,0.459c-0.208,0.133-0.431,0.248-0.661,0.344
	c-0.234,0.098-0.476,0.182-0.719,0.249c-0.238,0.066-0.474,0.122-0.699,0.163c-0.279-0.031-0.543-0.054-0.786-0.066
	c-0.248-0.014-0.48-0.021-0.689-0.021h-0.233c-0.045,0-0.092,0.001-0.141,0.002C52.718,49.656,52.835,49.281,52.971,48.9z
	 M50.923,50.609c0,0.168,0.074,0.297,0.215,0.375c0.061,0.033,0.121,0.059,0.181,0.074c-0.345,0.758-0.747,1.424-1.197,1.98
	c-0.479,0.592-0.991,1.088-1.521,1.473c-0.529,0.385-1.079,0.674-1.632,0.859c-1.107,0.371-2.165,0.346-3.005,0.08
	c-0.418-0.131-0.78-0.32-1.078-0.564c-0.295-0.242-0.526-0.543-0.687-0.893c-0.161-0.354-0.242-0.758-0.242-1.205
	c0-0.482,0.1-0.998,0.298-1.535c0.199-0.539,0.5-1.096,0.894-1.653c0.39-0.549,0.828-1.048,1.302-1.485
	c0.475-0.438,0.981-0.827,1.507-1.157c0.525-0.329,1.074-0.615,1.631-0.852c0.558-0.234,1.119-0.429,1.669-0.577
	c0.55-0.147,1.094-0.258,1.618-0.327c0.523-0.068,1.023-0.104,1.487-0.104c0.313,0,0.616,0.009,0.902,0.024
	c0.215,0.013,0.428,0.03,0.636,0.054c-0.244,0.35-0.465,0.707-0.655,1.068c-0.221,0.416-0.425,0.846-0.607,1.275
	s-0.352,0.871-0.502,1.312c-0.143,0.417-0.282,0.833-0.42,1.249c-0.238,0.038-0.415,0.084-0.537,0.141
	C51.011,50.298,50.923,50.431,50.923,50.609z"/>
</svg>
