<?xml version="1.0" encoding="utf-8"?>
<!-- Generator: Adobe Illustrator 16.0.0, SVG Export Plug-In . SVG Version: 6.00 Build 0)  -->
<!DOCTYPE svg PUBLIC "-//W3C//DTD SVG 1.1//EN" "http://www.w3.org/Graphics/SVG/1.1/DTD/svg11.dtd">
<svg version="1.1" id="Layer_1" xmlns="http://www.w3.org/2000/svg" xmlns:xlink="http://www.w3.org/1999/xlink" x="0px" y="0px"
	 width="20px" height="20px" viewBox="40 40 20 20" enable-background="new 40 40 20 20" xml:space="preserve">
<polygon fill="#FFFFFF" points="58.199,47.436 57.46,46.343 56.806,45.375 56.098,45.375 53.346,45.375 53.026,45.375 
	51.958,45.375 49.206,45.375 47.277,45.375 44.525,45.375 43.35,47.436 42.674,48.623 41.047,51.476 41.792,52.577 42.54,53.684 
	43.185,54.638 43.925,54.638 46.677,54.638 46.741,54.638 46.706,54.586 47.852,52.577 49.811,49.143 47.059,49.143 45.213,52.378 
	44.167,50.83 46.103,47.436 48.031,47.436 50.783,47.436 52.171,47.436 54.42,47.436 54.693,47.84 55.731,49.375 53.905,52.577 
	51.991,52.577 53.95,49.143 51.198,49.143 49.239,52.577 48.064,54.638 50.816,54.638 52.73,54.638 55.482,54.638 56.657,52.577 
	57.225,51.583 58.953,48.551 "/>
</svg>
