<?xml version="1.0" encoding="utf-8"?>
<!-- Generator: Adobe Illustrator 16.0.0, SVG Export Plug-In . SVG Version: 6.00 Build 0)  -->
<!DOCTYPE svg PUBLIC "-//W3C//DTD SVG 1.1//EN" "http://www.w3.org/Graphics/SVG/1.1/DTD/svg11.dtd">
<svg version="1.1" id="Layer_1" xmlns="http://www.w3.org/2000/svg" xmlns:xlink="http://www.w3.org/1999/xlink" x="0px" y="0px"
	 width="20px" height="20px" viewBox="40 40 20 20" enable-background="new 40 40 20 20" xml:space="preserve">
<path fill="#FFFFFF" d="M59.143,42.333c-0.382-1.322-1.434-1.837-2.558-1.979c-2.397-0.262-6.171,0.757-9.255,3.912
	c-4.84,4.953-4.258,9.637-4.258,9.637c-1.545,0.071-1.788-0.299-2.049-0.492c-0.32-0.236-0.405,0.147-0.405,0.147v1.179
	c0.441,0.661,2.429,0.416,2.429,0.416c1.706,5.152,4.968,4.625,7.654,3.484c1.832-0.779,3.08-1.896,3.69-2.53
	c0.393-0.423,0.889-1.327,0.889-1.327l0,0c0.276-0.66,0.46-1.129,0.46-1.129c0.366-1.675-0.382-0.643-0.392-0.632
	c-0.049,0.087-0.102,0.18-0.157,0.282c-1.656,3.054-4.857,4.379-6.771,3.716c-1.914-0.662-2.061-2.655-2.061-2.655
	c4.094-1.392,4.484-2.411,4.484-2.411c0.73,0.101,1.79-0.081,2.958-0.527c0.007-0.008,1.136-0.459,2.662-1.568
	C57.989,48.743,60.1,45.644,59.143,42.333z M51.619,50.074c-0.202,0.087-0.684,0.115-1.131-1.177
	c-0.331-0.957-0.239-2.343,0.774-3.226c0.535-0.468,1.033-0.509,1.396-0.427c0.184,0.022,0.362,0.098,0.528,0.242
	c0.027,0.021,0.047,0.039,0.057,0.05c0.217,0.214,0.312,0.483,0.334,0.771c0.001,0.02,0.002,0.04,0.003,0.061
	c0,0.015,0,0.03,0,0.045c0.001,0.044,0.004,0.087,0.001,0.135c-0.001,0.01-0.003,0.021-0.006,0.031
	c-0.07,0.889-0.704,1.838-0.704,1.838C52.644,48.866,51.821,49.987,51.619,50.074z M56.383,48.111
	c-1.441,2.257-3.981,2.576-3.589,2.097c0.009-0.009,0.019-0.022,0.028-0.034c0.473-0.406,1.794-1.662,2.525-3.55
	c0.014-0.036,0.028-0.072,0.042-0.11c0.002-0.005,0.004-0.009,0.006-0.015c0.058-0.152,0.111-0.31,0.157-0.474
	c0.002-0.007,0.004-0.012,0.006-0.018c0.008-0.026,0.014-0.051,0.021-0.076c0.002-0.006,0.004-0.013,0.006-0.019
	c0.168-0.605,0.209-1.047,0.168-1.366c0-0.002,0-0.003,0-0.005c-0.021-1.077-0.962-1.61-1.744-1.619
	c-0.783-0.009-1.487,0.126-3.102,1.288c-0.912,0.657-1.499,1.417-1.843,1.972c-0.044,0.07-0.083,0.136-0.12,0.201
	c-0.041,0.07-0.08,0.142-0.117,0.215c-0.042,0.082-0.079,0.155-0.104,0.212c-0.046,0.1-0.067,0.157-0.067,0.157l0.003-0.001
	c-0.084,0.211-0.155,0.433-0.207,0.668c-0.368,1.655,0.347,3,0.552,3.348c0.159,0.271,0.466,0.479,0.166,0.717
	c-0.296,0.236-1.84,1.271-2.815,1.492c0,0-0.368,0.183-0.386-0.331c-0.019-0.517-0.111-2.917,0.828-5.226
	c0.883-2.172,2.641-3.957,4.453-4.84c1.843-0.898,4.104-0.994,5.069,0.045C57.263,43.856,57.842,45.827,56.383,48.111z"/>
</svg>
