<?xml version="1.0" encoding="utf-8"?>
<!-- Generator: Adobe Illustrator 16.0.0, SVG Export Plug-In . SVG Version: 6.00 Build 0)  -->
<!DOCTYPE svg PUBLIC "-//W3C//DTD SVG 1.1//EN" "http://www.w3.org/Graphics/SVG/1.1/DTD/svg11.dtd">
<svg version="1.1" id="Layer_1" xmlns="http://www.w3.org/2000/svg" xmlns:xlink="http://www.w3.org/1999/xlink" x="0px" y="0px"
	 width="20px" height="20px" viewBox="40 40 20 20" enable-background="new 40 40 20 20" xml:space="preserve">
<g>
	<polygon fill="#FFFFFF" points="47.411,53.93 52.59,53.185 52.59,51.874 47.411,52.618 	"/>
	<polygon fill="#FFFFFF" points="47.411,59.116 52.59,59.116 52.59,57.321 47.411,58.066 	"/>
	<polygon fill="#FFFFFF" points="47.411,56.653 52.59,55.908 52.59,54.598 47.411,55.342 	"/>
	<path fill="#FFFFFF" d="M53.56,40.718h-3.028v1.537h-1.062v-1.537h-3.028c-0.583,0-1.055,0.472-1.055,1.054v2.285h2.025v1.98
		l5.179-0.745v-1.235h2.023v-2.286C54.613,41.19,54.141,40.718,53.56,40.718z"/>
	<polygon fill="#FFFFFF" points="47.411,51.206 52.59,50.461 52.59,49.43 47.411,50.175 	"/>
	<polygon fill="#FFFFFF" points="47.411,48.762 52.59,48.017 52.59,46.706 47.411,47.451 	"/>
</g>
</svg>
