<?xml version="1.0" encoding="utf-8"?>
<!-- Generator: Adobe Illustrator 17.1.0, SVG Export Plug-In . SVG Version: 6.00 Build 0)  -->
<!DOCTYPE svg PUBLIC "-//W3C//DTD SVG 1.1//EN" "http://www.w3.org/Graphics/SVG/1.1/DTD/svg11.dtd">
<svg version="1.1" id="Layer_1" xmlns="http://www.w3.org/2000/svg" xmlns:xlink="http://www.w3.org/1999/xlink" x="0px" y="0px"
	 viewBox="0 0 500 500" enable-background="new 0 0 500 500" xml:space="preserve">
<g>
	<path fill="#FFFFFF" d="M456.8,491.1H44.2c-19,0-34.3-15.3-34.3-34.3V44.2c0-19,15.3-34.3,34.3-34.3h412.5
		c19,0,34.3,15.3,34.3,34.3v412.5C491.1,475.8,475.8,491.1,456.8,491.1z M456.8,473.9c9.4,0,17.2-7.8,17.2-17.2V44.2
		c0-9.4-7.8-17.2-17.2-17.2H44.2c-9.4,0-17.2,7.8-17.2,17.2v412.5c0,9.4,7.8,17.2,17.2,17.2H456.8z M319.3,173.2H302
		c-9.4,0-17.2-7.8-17.2-17.2v-25.8H95.9c-4.7,0-8.7-3.8-8.7-8.7c0-4.7,4-8.5,8.7-8.5h188.9V87.2c0-9.4,7.8-17.2,17.2-17.2h17.4
		c9.4,0,17.2,7.8,17.2,17.2v25.8h68.6c4.7,0,8.7,3.8,8.7,8.5c0,4.9-4,8.7-8.7,8.7h-68.6v25.8C336.5,165.5,328.7,173.2,319.3,173.2z
		 M319.3,156.1V87.2H302v68.8H319.3z M199.1,302h-17.4c-9.4,0-17.2-7.5-17.2-17.2v-25.6H95.9c-4.7,0-8.7-4-8.7-8.7
		c0-4.7,4-8.7,8.7-8.7h68.6v-25.6c0-9.6,7.8-17.2,17.2-17.2h17.4c9.4,0,17.2,7.5,17.2,17.2v25.6h188.9c4.7,0,8.7,4,8.7,8.7
		c0,4.7-4,8.7-8.7,8.7H216.2v25.6C216.2,294.4,208.5,302,199.1,302z M199.1,284.8v-68.6h-17.4v68.6H199.1z M284.8,430.9h-17.2
		c-9.4,0-17.2-7.8-17.2-17.2v-25.8H95.9c-4.7,0-8.7-3.8-8.7-8.5c0-4.9,4-8.7,8.7-8.7h154.6V345c0-9.4,7.8-17.2,17.2-17.2h17.2
		c9.6,0,17.2,7.8,17.2,17.2v25.8h103.1c4.7,0,8.7,3.8,8.7,8.7c0,4.7-4,8.5-8.7,8.5H302v25.8C302,423.2,294.4,430.9,284.8,430.9z
		 M284.8,413.8V345h-17.2v68.8H284.8z"/>
</g>
</svg>
