<?xml version="1.0" encoding="utf-8"?>
<!-- Generator: Adobe Illustrator 17.1.0, SVG Export Plug-In . SVG Version: 6.00 Build 0)  -->
<!DOCTYPE svg PUBLIC "-//W3C//DTD SVG 1.1//EN" "http://www.w3.org/Graphics/SVG/1.1/DTD/svg11.dtd">
<svg version="1.1" id="Layer_1" xmlns="http://www.w3.org/2000/svg" xmlns:xlink="http://www.w3.org/1999/xlink" x="0px" y="0px"
	 viewBox="0 0 500 500" enable-background="new 0 0 500 500" xml:space="preserve">
<g>
	<path fill="#FFFFFF" d="M9.9,104.4c0-23.7,19.3-43,43-43h395.2c23.7,0,43,19.3,43,43s-19.3,43-43,43H52.9
		C29.2,147.4,9.9,128.1,9.9,104.4z M491.1,250.5c0,23.7-19.3,43-43,43H52.9c-23.7,0-43-19.3-43-43c0-23.7,19.3-43,43-43h395.2
		C471.8,207.5,491.1,226.8,491.1,250.5z M491.1,396.6c0,23.7-19.3,43-43,43H52.9c-23.7,0-43-19.3-43-43c0-23.7,19.3-43,43-43h395.2
		C471.8,353.6,491.1,372.9,491.1,396.6z M27.1,104.4c0,14.3,11.5,25.8,25.8,25.8h395.2c14.3,0,25.8-11.5,25.8-25.8
		c0-14.1-11.5-25.6-25.8-25.6H52.9C38.6,78.8,27.1,90.3,27.1,104.4z M473.9,250.5c0-14.3-11.5-25.8-25.8-25.8H52.9
		c-14.3,0-25.8,11.5-25.8,25.8c0,14.3,11.5,25.8,25.8,25.8h395.2C462.4,276.4,473.9,264.8,473.9,250.5z M473.9,396.6
		c0-14.3-11.5-25.8-25.8-25.8H52.9c-14.3,0-25.8,11.5-25.8,25.8c0,14.1,11.5,25.6,25.8,25.6h395.2
		C462.4,422.2,473.9,410.7,473.9,396.6z"/>
</g>
</svg>
