<?xml version="1.0" encoding="utf-8"?>
<!-- Generator: Adobe Illustrator 16.0.0, SVG Export Plug-In . SVG Version: 6.00 Build 0)  -->
<!DOCTYPE svg PUBLIC "-//W3C//DTD SVG 1.1//EN" "http://www.w3.org/Graphics/SVG/1.1/DTD/svg11.dtd">
<svg version="1.1" id="Layer_1" xmlns="http://www.w3.org/2000/svg" xmlns:xlink="http://www.w3.org/1999/xlink" x="0px" y="0px"
	 width="200px" height="76px" viewBox="47.75 20.25 200 76" enable-background="new 47.75 20.25 200 76" xml:space="preserve">
<g>
	
		<ellipse transform="matrix(-0.512 0.859 -0.859 -0.512 345.5935 -137.2016)" fill="#8A8A8A" cx="211.769" cy="29.565" rx="3.589" ry="2.576"/>
	<path fill="#8A8A8A" d="M225.066,55.626c0,0,0.247-0.104,0.662-0.278l0.101-0.042c2.6-1.092,11.011-4.624,11.918-5.008
		c1.073-0.454,2.973-0.826,3.014-2.602c0.042-1.776-2.871-1.404-2.871-1.404l-5.657-0.021c0.372-2.396-1.219-2.417-2.023-2.417
		c-0.806,0-2.479-0.103-3.489-0.516c-1.012-0.413-1.508-2.065-1.198-3.696c0.31-1.631,1.589-3.552,1.899-4.171
		c0.31-0.62-0.598-0.641-1.28-0.537c-0.682,0.104-1.404,0.599-2.024,1.817c-0.619,1.218-2.664,5.307-3.345,6.278
		c-0.682,0.97-1.963,0.909-2.21,0c-0.248-0.908-0.104-3.758,1.343-5.803c1.445-2.044,4.295-4.657,6.256-4.822
		c1.962-0.165,2.065,0.671,2.21,1.063s-0.072,1.745,1.353,2.22c1.425,0.474,2.478-0.837,2.695-1.611
		c0.181-0.645,0.268-2.572-1.817-4.079c-2.086-1.508-5.576-1.198-8.9,0.599c-3.324,1.796-5.04,3.738-6.732,5.783
		c-1.694,2.044-3.015,4.418-4.172,6.463c-1.123,1.987-2.762,3.645-2.854,3.737c-1.825,1.11-1.049-1.486-1.049-1.486
		s3.015-6.773,3.675-8.095c0.662-1.321,0-1.115,0-1.115s-3.344,0.743-4.047,0.826c-0.703,0.083-0.826,0.868-1.198,1.528
		s-2.478,4.75-3.179,5.783c-0.702,1.033-1.364,1.693-1.653,1.528s0-1.115,0-1.694c0-0.578-0.289-1.404-0.991-1.983
		c-0.702-0.578-2.147-0.206-2.809,0.992c-0.66,1.198-0.62,3.18-0.331,4.295s0,1.528,0,1.528c-1.362,3.345-2.478,4.048-3.056,4.089
		c-0.579,0.042-1.228-2.066-0.743-4.461c0.919-4.543,3.106-6.075,3.106-6.075v0c2.366-1.812,5.159-4.604,7.604-7.665
		c4.765-5.963,8.494-11.412,6.512-12.94c-2.08-1.603-8.452,1.967-13.217,7.93c-2.167,2.713-3.914,5.695-5.017,8.268
		c-0.002,0.004-0.005,0.007-0.007,0.011c-0.763,1.585-1.809,4.073-2.413,5.535l0.002-0.07c0,0-1.527,3.933-2.147,5.461
		c-0.619,1.528-2.437,4.377-3.635,4.792c-0.918,0.317-1.021-0.186-0.713-1.333c0.166-0.609,0.919-2.632,2.075-4.698
		c1.157-2.066,1.034-3.676,0.29-4.626c-0.743-0.95-2.437-0.991-4.296,0c-1.859,0.992-3.345,2.726-3.8,3.304
		c-0.454,0.579-0.908,0.248-0.908,0.248c-0.62-0.95-1.074-1.693-2.809-1.693s-2.933,1.281-3.511,2.106
		c-0.578,0.826-1.074,1.693-1.445,1.693c-0.183,0-0.313-0.188-0.401-0.378c-0.041-0.137-0.079-0.277-0.133-0.398
		c0,0,0-0.004,0-0.004h-0.001c-0.551-1.268-1.661-1.753-2.273-1.861c-0.702-0.124-1.692,0-3.18,1.322
		c-1.487,1.321-3.139,4.088-4.007,5.824c-0.867,1.734-3.551,7.187-4.171,8.263c-0.619,1.076-1.569,1.236-1.694,0.287
		c-0.123-0.951,0.704-2.855,0.704-2.855s3.633-8.256,4.129-9.412c0.496-1.157-0.743-0.785-0.743-0.785s-1.569,0.496-2.85,0.743
		c-1.28,0.248-1.363,1.034-1.363,1.034s-1.611,3.841-3.221,8.42c-1.612,4.58-3.18,6.449-5.039,6.572
		c-1.859,0.125-1.074-3.883-0.579-5.451c0.496-1.57,3.263-7.394,3.634-8.178c0.372-0.785-0.661-0.702-0.661-0.702l-0.062,0.018
		c-0.008,0-3.987,0.802-4.744,1.458c-0.213,0.185-0.656,1.262-0.759,1.534c-0.805,2.106-4.429,9.65-4.429,9.65
		s-3.765,7.465-5.39,4.584c-1.115-1.979-0.843-6.275,0.745-9.182c3.944-3.534,9.331-10.33,13.484-15.754
		c5.843-7.633,7.896-15.67,4.998-17.667c-2.899-1.997-9.748,3.45-15.324,12.309s-9.723,22.037-10.037,23.379
		c-0.052,0.225-0.137,0.553-0.241,0.957c-0.857,0.918-1.67,1.379-2.272,1.609c-0.236-2.449-1.248-4.379-3.156-5.409
		c-5.049-2.726-12.607,1.686-16.666,8.92c-0.483,0.861-0.906,1.723-1.275,2.574c-0.305,0.488-0.646,1.08-1.034,1.795
		C94.649,82.061,83.87,86.52,77.427,84.291c-6.443-2.23-6.941-8.939-6.941-8.939c13.783-4.691,15.096-8.121,15.096-8.121
		c2.461,0.334,6.03-0.273,9.961-1.773c0.021-0.029,3.821-1.549,8.962-5.285c5.142-3.737,12.246-14.172,9.025-25.324
		c-1.287-4.452-4.824-6.185-8.611-6.665c-8.072-0.882-20.776,2.548-31.163,13.174C57.46,58.028,59.419,73.799,59.419,73.799
		c-5.204,0.248-6.019-1.002-6.897-1.652c-1.078-0.797-1.363,0.496-1.363,0.496v3.965c1.487,2.23,8.178,1.404,8.178,1.404
		c5.741,17.348,16.727,15.57,25.772,11.73c9.045-3.842,13.877-10.16,13.877-10.16l0.625-0.672c0.319,2.684,1.568,4.832,3.821,5.998
		c4.578,2.375,11.743-1.389,15.767-8.92c1.537-2.879,2.56-5.752,2.986-8.344l1.289-0.242c-0.558,3.1-0.882,6.637-0.031,8.957
		c1.611,4.398,6.072,1.24,7.187,0c0.702-0.779,2.19-2.262,3.892-4.748c0.283-0.494,0.474-0.867,0.562-0.994
		c0.29-0.414,0.526-0.217,0.526-0.078c0,0.068-0.068,1.037,0.197,2.041c0.043,0.131,0.08,0.254,0.13,0.393
		c0.063,0.176,0.131,0.336,0.202,0.484c0.372,0.709,1.025,1.393,2.053,1.395c1.028,0,1.851-0.646,2.866-1.383
		c2.107-1.529,3.904-4.131,4.192-4.543c0.29-0.414,0.527-0.217,0.527-0.078c0,0.141-0.547,3.258,2.427,3.465
		c2.972,0.207,4.75-3.016,4.75-3.016s4.296-8.342,5.534-10.985c1.238-2.643,1.858-4.543,2.85-4.502
		c0.92,0.039,0.346,1.748,0.259,1.993l-0.012,0.031l-4.903,12.783c0,0,3.707-1.178,4.822-1.426s1.651-1.889,1.651-1.889
		s3.552-9.438,3.965-10.594s0.929-3.108,2.199-3.345c1.505-0.281,0.217,3.067,0.217,3.067s-2.457,7.144-3.241,9.292
		c-0.785,2.148-0.816,2.293-0.816,2.293s3.211-0.971,4.326-1.26s1.404-1.59,1.404-1.59l4.089-11.214c0,0,0.867-2.933,2.148-2.602
		c1.281,0.33,0.123,2.478-0.125,3.098s-2.147,4.874-2.561,6.814c-0.413,1.941,0.165,3.965,2.85,4.213
		c2.684,0.248,4.791-2.932,5.907-4.254c1.115-1.322,1.825-2.934,2.404-3.551c0.27-0.289,0.402-0.276,0.5-0.037
		c0.053,0.367,0.135,0.734,0.248,1.099c0.139,0.549,0.395,1.041,0.566,1.326c0.002,0.003,0.004,0.006,0.006,0.01
		c0.003,0.006,0.007,0.011,0.012,0.018c0.084,0.139,0.146,0.227,0.146,0.227l0.001-0.001c0.335,0.506,0.718,0.86,1.138,1.075v0.002
		c0,0,0.009,0.004,0.025,0.01c0.317,0.156,0.654,0.236,1.004,0.252c0.828,0.115,2.036,0.074,3.169-0.758
		c1.981-1.455,4.542-5.895,5.521-7.796c0.4-0.642,0.449-1.269,0.924-1.374c0.589-0.131,1.532-0.216,1.532-0.216
		c0.016,0.542-1.115,4.926,1.843,5.421c3.088,0.517,6.65-5.7,6.98-6.153c0.203-0.281,0.457-0.529,0.621-0.679
		c0.141,1.303,0.76,3.581,3.467,3.157c3.429-0.538,6.525-4.916,6.525-4.916s-0.209,1.147,0.393,1.9
		c0.744,0.929,1.808,0.071,2.788-0.082c1.018-0.159,1.384-0.126,1.384-0.126c-0.034,0.942-0.062,1.655,1.012,1.902
		c1.074,0.248,3.349-0.41,5.328-0.516c1.528-0.082,1.859,0.764,0.661,1.26c-1.139,0.471-5.562,1.914-7.058,2.399l-57.999,18.024
		l-53.71,16.945c0,0-4.982,1.361-5.345,1.857s0.133,1.209,1.62,1.146c1.487-0.061,7.279-1.5,7.279-1.5l5.019-1.283
		c1.703-0.529,1.409,0.105,1.332,0.383c0,0-0.201,0.838,0.833,0.857c0.899,0.02,3.751-1.012,3.751-1.012s1.456-0.604,2.2-0.572
		c0.743,0.031,0.542,0.371,0.588,0.588c0.044,0.205,0.264,0.574,1.906,0.016c1.642-0.557,8.627-3.207,8.627-3.207
		s1.317-0.572,0.929,0.078c-0.358,0.604-0.898,1.486-0.496,2.076c0.403,0.588,1.333,0.201,2.324-0.016
		c0.992-0.217,4.337-1.301,4.337-1.301s0.744-0.201,0.65,0.355c-0.093,0.559,0.246,1.053,1.472,0.543l75.092-31.421L225.066,55.626z
		 M196.977,36.096c0.518-2.385,3.778-9.726,6.361-10.57c1.512-0.494,0.964,1.638,0.518,2.467c-0.446,0.83-2.893,5.61-5.925,8.802
		C197.931,36.795,196.459,38.481,196.977,36.096z M137.378,40.969c2.817-4.798,6.118-8.729,7.245-8.068
		c1.127,0.662-0.428,5.064-3.246,9.862c-2.817,4.798-8.28,12.067-8.87,10.902C132.055,52.771,134.559,45.767,137.378,40.969z
		 M88.2,60.914c-0.68,0.293-2.302,0.383-3.808-3.966c-1.115-3.221-0.805-7.889,2.602-10.862c1.806-1.576,3.479-1.712,4.702-1.438
		c0.619,0.077,1.22,0.332,1.777,0.813c0.091,0.071,0.157,0.131,0.191,0.17c0.733,0.718,1.055,1.625,1.123,2.595
		c0.005,0.066,0.01,0.134,0.013,0.203c0.001,0.051,0,0.103,0,0.153c0.003,0.148,0.012,0.293,0.003,0.456
		c-0.002,0.035-0.015,0.071-0.023,0.106c-0.235,2.99-2.371,6.188-2.371,6.188C91.649,56.847,88.88,60.621,88.2,60.914z
		 M69.172,70.289c-0.062-1.734-0.373-9.816,2.788-17.591c2.974-7.314,8.891-13.323,14.993-16.297
		c6.204-3.023,13.815-3.345,17.068,0.155c3.181,3.423,5.129,10.057,0.216,17.75c-4.853,7.599-13.402,8.673-12.081,7.062
		c0.028-0.033,0.064-0.076,0.095-0.115c1.592-1.369,6.038-5.596,8.504-11.957c0.047-0.123,0.096-0.244,0.141-0.368
		c0.007-0.019,0.015-0.037,0.021-0.055c0.192-0.512,0.371-1.043,0.528-1.594c0.005-0.02,0.013-0.041,0.019-0.062
		c0.025-0.087,0.045-0.167,0.069-0.252c0.007-0.022,0.012-0.042,0.018-0.064c0.568-2.038,0.705-3.524,0.568-4.601
		c0-0.005,0-0.009,0-0.016c-0.072-3.625-3.242-5.42-5.875-5.451c-2.633-0.031-5.006,0.426-10.439,4.337
		c-3.073,2.212-5.047,4.769-6.209,6.639c-0.147,0.237-0.28,0.461-0.401,0.674c-0.138,0.237-0.27,0.48-0.394,0.727
		c-0.143,0.276-0.265,0.523-0.352,0.714c-0.154,0.337-0.227,0.529-0.227,0.529l0.01-0.008c-0.283,0.715-0.521,1.461-0.697,2.252
		c-1.239,5.573,1.167,10.102,1.859,11.272c0.537,0.908,1.57,1.611,0.557,2.416c-0.999,0.795-6.195,4.275-9.479,5.018
		C70.474,71.404,69.234,72.023,69.172,70.289z M117.42,71.297c-1.692,4.629-5.18,7.469-7.643,6.607
		c-2.701-0.943-2.561-5.676-1.323-9.709c0.479-1.561,1.261-2.947,2.186-4.062c0.424,0.857,1.329,2.387,3.015,3.307
		c1.868,1.016,3.919,0.848,4.639,0.746C118.102,69.18,117.812,70.227,117.42,71.297z M115.1,64.26
		c-0.95-0.6-1.218-1.922-0.579-2.562c0.456-0.455,1.214-0.389,1.615-0.314c0.143,0.029,0.285,0.062,0.422,0.113
		c1.188,0.441,1.82,1.678,1.967,3.357C116.646,65.111,116.028,64.846,115.1,64.26z"/>
	<path fill="#8A8A8A" d="M184.507,84.104c0,0,3.263-1.363,2.086-4.934c-0.271-0.826-1.301-3.119-5.41-2.129
		c-0.941,0.229-6.506,2.623-6.506,2.623s-1.734,0.641-1.527,1.342c0.167,0.568,1.049,0.271,1.61,0.051v10.029
		c-0.014,0.33-0.096,0.852-0.475,0.906c-0.558,0.084-1.136,0.062-1.136,0.723c0,0.662,0.273,0.662,0.537,0.662h1.075h4.707h4.729
		c0,0,3.587-0.559,3.717-5.164C188.018,84.58,184.507,84.104,184.507,84.104z M179.469,79.25c0-0.412,1.012-1.115,1.941-1.135
		c0.929-0.02,0.971,1.135,0.971,1.135s0.145,1.26,0,2.934c-0.145,1.672-0.888,1.982-1.856,2.107
		c-0.967,0.123-1.056-0.455-1.056-0.455V79.25z M182.711,90.01c-0.153,1.773-1.16,1.955-2.187,2.086
		c-1.025,0.131-1.056-0.709-1.056-0.709v-5.355c0-0.438,1.072-0.688,2.058-0.709s1.144,1.197,1.144,1.197
		S182.863,88.236,182.711,90.01z"/>
	<path fill="#8A8A8A" d="M203.987,67.5c-0.055,0-0.104,0.016-0.154,0.031l-0.003-0.004l-0.025,0.01
		c-0.019,0.008-0.036,0.014-0.054,0.023l-6.192,2.742v0.008c-0.213,0.062-0.372,0.256-0.372,0.496c0,0.275,0.209,0.494,0.471,0.516
		c0.005,0.002,0.009,0.012,0.014,0.014c0.019,0.002,0.049,0.004,0.084,0.006l0.754,0.008l-0.163,19.48l-0.002,0.213l-0.001,0.006
		c-0.062,0.873-0.783,1.562-1.672,1.562s-1.609-0.691-1.672-1.562l-0.016-18.297c-0.017-0.311,0.804-0.625,0.816-0.645
		c0.223-0.074,0.384-0.283,0.384-0.537c0-0.312-0.247-0.57-0.553-0.57c-0.055,0-0.104,0.018-0.154,0.033l-0.003-0.004l-0.025,0.012
		c-0.019,0.006-0.036,0.012-0.054,0.021l-6.688,2.742l-0.001,0.008c-0.213,0.062-0.37,0.256-0.37,0.496
		c0,0.275,0.208,0.494,0.469,0.516c0.006,0.002,0.01,0.012,0.015,0.012c0.201,0.033,1.637,0,1.637,0v13.379h0.041
		c0.35,3.148,3.017,5.596,6.258,5.596c3.312,0,6.021-2.557,6.272-5.803h0.025V71.002c0,0,0.001-0.979,0.005-1.424
		c0.007-0.445,1.087-0.951,1.1-0.971c0.222-0.074,0.384-0.281,0.384-0.535C204.54,67.754,204.293,67.5,203.987,67.5z"/>
	<path fill="#8A8A8A" d="M227.602,83.619c-0.018-0.238-0.11-0.799-0.621-0.119c-0.635,1.145-2.682,5.988-3.707,8.439
		c-0.133,0.193-0.323,0.354-0.598,0.354c-0.469,0-0.566-0.484-0.583-0.791v-0.244V62.576h-0.013c0-0.275,0.017-0.615,0.095-0.811
		c0.177-0.443,0.905-0.799,0.919-0.818c0.221-0.076,0.384-0.283,0.384-0.537c0-0.314-0.248-0.57-0.554-0.57
		c-0.055,0-0.104,0.018-0.154,0.033c-0.001,0-0.003-0.004-0.003-0.004l-0.026,0.01c-0.019,0.008-0.037,0.014-0.054,0.023
		l-6.688,2.742v0.008c-0.212,0.062-0.371,0.256-0.371,0.494c0,0.275,0.207,0.494,0.469,0.516c0.006,0.004,0.01,0.012,0.015,0.014
		c0.102,0.016,0.515,0.016,0.901,0.012v28.086c-0.021,0.049-0.045,0.086-0.068,0.119c-0.013,0.012-0.02,0.027-0.034,0.039
		c-0.006,0.006-0.011,0.012-0.017,0.016c-0.359,0.27-1.266,0.279-1.284,0.291c-0.232-0.023-0.466,0.098-0.571,0.328
		c-0.13,0.287-0.011,0.621,0.268,0.748c0.051,0.023,0.102,0.029,0.154,0.035c0,0.002,0,0.006,0,0.006h0.027
		c0.021,0.002,0.04,0.004,0.06,0.002l1.198,0.016v0.002h0.268v0.002h5.08v-0.002h0.585l-0.001,0.002l0.829-0.002h0.037v-0.002
		l3.28-0.01c0,0,0.783-0.123,0.783-0.881c0-0.992-0.007-8.834-0.007-8.834S227.6,83.637,227.602,83.619z"/>
	<path fill="#8A8A8A" d="M213.562,92.24c-0.017-0.01-0.887-0.023-1.258-0.277V67.016v-0.568h-0.011
		c0.005-0.242,0.028-0.506,0.094-0.668c0.175-0.443,0.904-0.799,0.917-0.82c0.222-0.074,0.385-0.281,0.385-0.535
		c0-0.314-0.247-0.57-0.554-0.57c-0.055,0-0.104,0.018-0.154,0.033l-0.002-0.004l-0.025,0.01c-0.02,0.006-0.037,0.014-0.055,0.023
		l-6.688,2.742c0,0-0.001,0.006-0.001,0.008c-0.212,0.062-0.371,0.256-0.371,0.494c0,0.277,0.208,0.496,0.47,0.518
		c0.005,0.002,0.01,0.01,0.015,0.012c0.102,0.018,0.515,0.018,0.9,0.014v24.193c-0.307,0.318-1.313,0.334-1.332,0.346
		c-0.231-0.023-0.466,0.098-0.571,0.328c-0.13,0.285-0.012,0.621,0.268,0.746c0.05,0.023,0.102,0.029,0.153,0.037
		c0.002,0,0.002,0.004,0.002,0.004l0.026,0.002c0.021,0.002,0.04,0.002,0.059,0.002l1.396,0.016l0,0h0.069h4.869h0.142v-0.002
		l1.322-0.014c0.02,0,0.039-0.002,0.06-0.004h0.027c0,0,0-0.004,0-0.006c0.053-0.006,0.104-0.012,0.154-0.035
		c0.278-0.127,0.397-0.461,0.268-0.748C214.029,92.338,213.796,92.217,213.562,92.24z"/>
	<path fill="#8A8A8A" d="M240.409,52.601c-0.613,0.172-6.047,2.455-10.103,4.171h-0.078v0.033c-2.463,1.042-4.399,1.868-4.399,1.868
		s-0.784,0.125-0.784,0.882c0,0.99,0.006,8.834,0.006,8.834s-0.001,0.012-0.002,0.031c0.017,0.234,0.109,0.797,0.621,0.115
		c0.857-1.547,3.834-9.875,3.834-9.875s0.263-0.521,0.725-0.501v33.838c-0.398,0.219-1.182,0.232-1.198,0.242
		c-0.232-0.023-0.466,0.1-0.57,0.328c-0.131,0.287-0.013,0.623,0.267,0.748c0.05,0.023,0.103,0.029,0.154,0.035
		c0,0.002,0,0.006,0,0.006h0.028c0.02,0.002,0.039,0.004,0.059,0.002l1.261,0.016v-0.002h5.494l0,0l1.245-0.014
		c0.02,0.002,0.04,0,0.059-0.002h0.027l0.001-0.006c0.053-0.006,0.104-0.012,0.154-0.035c0.277-0.127,0.397-0.461,0.268-0.748
		c-0.105-0.23-0.34-0.352-0.571-0.328c-0.017-0.01-0.779-0.023-1.182-0.234V56.783c-0.021-0.465,0.195-0.929,0.754-0.589
		c0.681,0.417,3.902,6.632,3.902,6.632s0.744,1.422,0.96-0.25v-9.512C241.339,53.064,241.401,52.322,240.409,52.601z"/>
</g>
</svg>
