<?xml version="1.0" encoding="utf-8"?>
<!-- Generator: Adobe Illustrator 16.0.0, SVG Export Plug-In . SVG Version: 6.00 Build 0)  -->
<!DOCTYPE svg PUBLIC "-//W3C//DTD SVG 1.1//EN" "http://www.w3.org/Graphics/SVG/1.1/DTD/svg11.dtd">
<svg version="1.1" id="Layer_1" xmlns="http://www.w3.org/2000/svg" xmlns:xlink="http://www.w3.org/1999/xlink" x="0px" y="0px"
	 width="200px" height="76px" viewBox="0 0 200 76" enable-background="new 0 0 200 76" xml:space="preserve">
<g>
	
		<ellipse transform="matrix(0.859 0.512 -0.512 0.859 28.0955 -83.3793)" fill="#FFFFFF" cx="165.431" cy="9.32" rx="2.576" ry="3.589"/>
	<path fill="#FFFFFF" d="M178.726,35.375c0,0,0.246-0.104,0.662-0.278l0.101-0.041c2.601-1.093,11.011-4.625,11.918-5.009
		c1.073-0.454,2.974-0.825,3.014-2.603c0.042-1.775-2.87-1.403-2.87-1.403l-5.658-0.021c0.373-2.396-1.219-2.418-2.022-2.418
		c-0.806,0-2.479-0.103-3.489-0.516c-1.012-0.413-1.508-2.064-1.197-3.695c0.31-1.632,1.588-3.553,1.898-4.171
		c0.311-0.62-0.598-0.641-1.279-0.537c-0.683,0.104-1.404,0.599-2.024,1.817c-0.619,1.218-2.664,5.308-3.345,6.278
		c-0.683,0.97-1.963,0.908-2.211,0s-0.104-3.758,1.344-5.803c1.445-2.044,4.295-4.657,6.256-4.822
		c1.962-0.165,2.064,0.671,2.21,1.063c0.146,0.392-0.072,1.745,1.353,2.22c1.426,0.474,2.479-0.837,2.695-1.611
		c0.182-0.645,0.268-2.572-1.816-4.079c-2.086-1.508-5.576-1.198-8.9,0.599c-3.324,1.796-5.04,3.738-6.732,5.783
		c-1.693,2.044-3.015,4.418-4.172,6.463c-1.123,1.987-2.762,3.645-2.854,3.737c-1.825,1.11-1.049-1.486-1.049-1.486
		s3.015-6.773,3.674-8.095c0.662-1.321,0-1.115,0-1.115s-3.344,0.743-4.047,0.826s-0.825,0.868-1.197,1.528s-2.479,4.75-3.18,5.783
		s-1.363,1.693-1.652,1.528s0-1.114,0-1.694c0-0.578-0.289-1.403-0.991-1.982c-0.702-0.578-2.147-0.206-2.81,0.992
		c-0.659,1.197-0.619,3.18-0.33,4.295s0,1.527,0,1.527c-1.362,3.346-2.479,4.049-3.057,4.09s-1.228-2.066-0.742-4.461
		c0.918-4.543,3.105-6.075,3.105-6.075l0,0c2.366-1.812,5.159-4.604,7.604-7.665c4.766-5.963,8.494-11.412,6.513-12.94
		c-2.08-1.603-8.452,1.967-13.218,7.93c-2.166,2.713-3.913,5.695-5.016,8.268c-0.003,0.004-0.006,0.007-0.008,0.011
		c-0.763,1.585-1.809,4.073-2.413,5.535l0.002-0.069c0,0-1.526,3.933-2.147,5.461c-0.618,1.527-2.437,4.377-3.635,4.791
		c-0.918,0.317-1.021-0.186-0.713-1.332c0.166-0.609,0.92-2.633,2.075-4.699c1.157-2.065,1.034-3.676,0.29-4.625
		c-0.742-0.95-2.438-0.991-4.296,0c-1.858,0.992-3.345,2.726-3.8,3.304c-0.454,0.579-0.908,0.248-0.908,0.248
		c-0.62-0.95-1.074-1.692-2.809-1.692c-1.735,0-2.934,1.28-3.512,2.105c-0.578,0.826-1.074,1.693-1.445,1.693
		c-0.183,0-0.312-0.188-0.4-0.379c-0.041-0.137-0.079-0.276-0.133-0.397v-0.004h-0.001c-0.552-1.269-1.661-1.753-2.273-1.861
		c-0.702-0.124-1.692,0-3.18,1.322c-1.487,1.321-3.14,4.088-4.007,5.823c-0.867,1.734-3.551,7.188-4.172,8.264
		c-0.618,1.076-1.568,1.236-1.693,0.287c-0.123-0.951,0.704-2.855,0.704-2.855s3.633-8.256,4.129-9.413s-0.743-0.785-0.743-0.785
		s-1.568,0.496-2.85,0.744c-1.28,0.248-1.363,1.033-1.363,1.033s-1.611,3.842-3.221,8.42c-1.612,4.58-3.18,6.449-5.039,6.572
		c-1.859,0.125-1.074-3.883-0.579-5.451c0.496-1.571,3.263-7.394,3.634-8.178c0.372-0.785-0.66-0.702-0.66-0.702l-0.062,0.019
		c-0.008,0-3.987,0.802-4.744,1.457c-0.213,0.186-0.656,1.263-0.76,1.535c-0.805,2.105-4.428,9.649-4.428,9.649
		s-3.766,7.465-5.391,4.584c-1.115-1.979-0.843-6.273,0.745-9.182c3.944-3.534,9.331-10.331,13.483-15.754
		c5.844-7.632,7.896-15.669,4.998-17.667s-9.748,3.45-15.324,12.309c-5.575,8.859-9.723,22.038-10.036,23.379
		c-0.052,0.225-0.138,0.553-0.241,0.957c-0.857,0.918-1.67,1.379-2.271,1.609c-0.236-2.449-1.248-4.379-3.156-5.41
		c-5.049-2.726-12.607,1.685-16.666,8.919c-0.483,0.861-0.906,1.723-1.275,2.574c-0.305,0.488-0.646,1.08-1.034,1.795
		C48.308,61.811,37.529,66.27,31.086,64.041c-6.443-2.23-6.941-8.939-6.941-8.939c13.783-4.691,15.096-8.121,15.096-8.121
		c2.461,0.334,6.03-0.273,9.961-1.773c0.021-0.027,3.821-1.549,8.962-5.285c5.142-3.737,12.246-14.171,9.024-25.323
		c-1.286-4.452-4.823-6.185-8.61-6.665c-8.072-0.882-20.776,2.548-31.163,13.173c-16.296,16.67-14.337,32.442-14.337,32.442
		c-5.204,0.248-6.019-1.002-6.897-1.652c-1.078-0.797-1.363,0.496-1.363,0.496v3.965c1.487,2.23,8.178,1.404,8.178,1.404
		c5.741,17.348,16.727,15.57,25.772,11.73c9.045-3.842,13.877-10.16,13.877-10.16l0.625-0.672c0.319,2.684,1.569,4.832,3.821,5.998
		c4.578,2.375,11.743-1.389,15.768-8.92c1.537-2.879,2.56-5.752,2.986-8.344l1.289-0.242c-0.559,3.1-0.883,6.637-0.031,8.957
		c1.611,4.396,6.072,1.24,7.187,0c0.702-0.779,2.19-2.262,3.892-4.748c0.283-0.494,0.475-0.867,0.562-0.994
		c0.29-0.414,0.525-0.217,0.525-0.078c0,0.068-0.067,1.037,0.197,2.041c0.043,0.131,0.08,0.254,0.131,0.393
		c0.062,0.176,0.131,0.336,0.201,0.484c0.373,0.709,1.025,1.393,2.053,1.395c1.029,0,1.852-0.646,2.867-1.383
		c2.106-1.529,3.903-4.131,4.191-4.543c0.29-0.414,0.527-0.217,0.527-0.078c0,0.141-0.547,3.258,2.427,3.465
		c2.972,0.207,4.75-3.016,4.75-3.016s4.296-8.342,5.534-10.985c1.238-2.644,1.857-4.543,2.85-4.502
		c0.92,0.039,0.346,1.748,0.26,1.992l-0.013,0.031l-4.903,12.784c0,0,3.707-1.178,4.822-1.426s1.65-1.891,1.65-1.891
		s3.553-9.438,3.966-10.593c0.413-1.156,0.929-3.108,2.198-3.345c1.506-0.281,0.218,3.066,0.218,3.066s-2.457,7.145-3.241,9.293
		c-0.785,2.146-0.816,2.293-0.816,2.293s3.211-0.973,4.326-1.262s1.404-1.59,1.404-1.59l4.089-11.213c0,0,0.867-2.934,2.147-2.602
		c1.281,0.33,0.123,2.478-0.125,3.098c-0.247,0.619-2.146,4.873-2.561,6.813c-0.412,1.941,0.165,3.967,2.85,4.215
		s4.791-2.934,5.908-4.256c1.114-1.321,1.824-2.933,2.403-3.55c0.271-0.289,0.402-0.276,0.5-0.037
		c0.054,0.367,0.136,0.734,0.248,1.099c0.14,0.549,0.396,1.041,0.565,1.326c0.002,0.004,0.005,0.006,0.007,0.01
		c0.003,0.006,0.007,0.012,0.012,0.019c0.084,0.14,0.146,0.228,0.146,0.228l0.002-0.002c0.334,0.506,0.718,0.86,1.138,1.075v0.004
		c0,0,0.009,0.004,0.024,0.01c0.317,0.156,0.654,0.234,1.004,0.252c0.828,0.115,2.037,0.074,3.17-0.758
		c1.98-1.456,4.541-5.896,5.521-7.797c0.4-0.642,0.449-1.269,0.925-1.373c0.588-0.132,1.531-0.217,1.531-0.217
		c0.016,0.542-1.115,4.926,1.844,5.421c3.088,0.517,6.649-5.7,6.979-6.153c0.203-0.28,0.457-0.528,0.621-0.679
		c0.141,1.304,0.76,3.581,3.467,3.157c3.429-0.538,6.524-4.916,6.524-4.916s-0.209,1.146,0.394,1.9
		c0.744,0.929,1.808,0.07,2.788-0.082c1.018-0.159,1.384-0.127,1.384-0.127c-0.034,0.942-0.062,1.656,1.013,1.902
		c1.073,0.248,3.349-0.41,5.328-0.516c1.527-0.082,1.858,0.764,0.66,1.26c-1.139,0.471-5.562,1.914-7.058,2.398l-57.999,18.026
		L66.606,67.791c0,0-4.981,1.361-5.344,1.857c-0.363,0.496,0.133,1.209,1.619,1.146c1.487-0.061,7.279-1.5,7.279-1.5l5.02-1.283
		c1.703-0.529,1.408,0.105,1.332,0.383c0,0-0.201,0.838,0.832,0.857c0.899,0.02,3.752-1.012,3.752-1.012s1.455-0.605,2.199-0.572
		c0.743,0.031,0.543,0.371,0.588,0.588c0.045,0.205,0.264,0.574,1.906,0.016c1.643-0.557,8.627-3.207,8.627-3.207
		s1.317-0.572,0.93,0.078c-0.358,0.604-0.898,1.486-0.496,2.076c0.402,0.588,1.332,0.201,2.324-0.016
		c0.991-0.217,4.336-1.301,4.336-1.301s0.744-0.201,0.65,0.354c-0.093,0.561,0.246,1.055,1.473,0.543l75.092-31.42V35.375z
		 M150.636,15.846c0.519-2.385,3.778-9.726,6.361-10.57c1.512-0.494,0.965,1.638,0.518,2.467c-0.445,0.83-2.893,5.61-5.924,8.802
		C151.591,16.544,150.118,18.23,150.636,15.846z M91.037,20.718c2.817-4.798,6.118-8.729,7.245-8.068
		c1.127,0.662-0.428,5.064-3.246,9.863c-2.816,4.797-8.279,12.066-8.87,10.901C85.714,32.521,88.218,25.517,91.037,20.718z
		 M41.859,40.664c-0.68,0.293-2.302,0.383-3.808-3.966c-1.115-3.222-0.805-7.89,2.602-10.862c1.806-1.576,3.479-1.712,4.702-1.438
		c0.619,0.076,1.22,0.332,1.777,0.812c0.091,0.071,0.157,0.131,0.191,0.17c0.733,0.719,1.055,1.625,1.123,2.596
		c0.005,0.065,0.01,0.133,0.013,0.203c0.001,0.051,0,0.103,0,0.152c0.003,0.148,0.012,0.293,0.003,0.456
		c-0.002,0.035-0.015,0.071-0.023,0.106c-0.235,2.989-2.371,6.188-2.371,6.188C45.308,36.597,42.539,40.371,41.859,40.664z
		 M22.831,50.039c-0.062-1.734-0.373-9.816,2.788-17.591c2.974-7.314,8.891-13.323,14.993-16.297
		c6.204-3.023,13.814-3.345,17.068,0.155c3.181,3.422,5.129,10.057,0.215,17.75c-4.853,7.598-13.401,8.672-12.08,7.061
		c0.028-0.033,0.064-0.076,0.095-0.115c1.592-1.369,6.038-5.595,8.504-11.957c0.047-0.123,0.097-0.244,0.142-0.368
		c0.006-0.019,0.015-0.037,0.021-0.055c0.192-0.512,0.371-1.043,0.528-1.594c0.005-0.021,0.013-0.041,0.019-0.062
		c0.024-0.087,0.045-0.167,0.069-0.252c0.007-0.021,0.012-0.042,0.018-0.064c0.568-2.037,0.705-3.523,0.568-4.601
		c0-0.005,0-0.009,0-0.016c-0.072-3.625-3.242-5.42-5.875-5.451c-2.633-0.031-5.006,0.426-10.439,4.337
		c-3.073,2.212-5.047,4.77-6.209,6.639c-0.147,0.237-0.28,0.461-0.401,0.674c-0.138,0.238-0.27,0.48-0.394,0.728
		c-0.143,0.276-0.265,0.522-0.352,0.714c-0.154,0.337-0.227,0.529-0.227,0.529l0.01-0.008c-0.283,0.715-0.521,1.461-0.697,2.252
		c-1.239,5.572,1.167,10.102,1.859,11.272c0.537,0.908,1.57,1.611,0.557,2.416c-0.999,0.795-6.195,4.275-9.479,5.018
		C24.133,51.154,22.893,51.773,22.831,50.039z M71.079,51.047c-1.691,4.629-5.18,7.469-7.643,6.607
		c-2.701-0.943-2.562-5.676-1.323-9.709c0.479-1.562,1.261-2.947,2.187-4.062c0.424,0.857,1.328,2.387,3.014,3.307
		c1.869,1.016,3.92,0.848,4.64,0.746C71.761,48.93,71.472,49.977,71.079,51.047z M68.759,44.01c-0.949-0.6-1.218-1.922-0.578-2.562
		c0.455-0.455,1.213-0.389,1.615-0.314c0.143,0.029,0.284,0.062,0.422,0.113c1.188,0.441,1.819,1.678,1.967,3.357
		C70.306,44.861,69.687,44.596,68.759,44.01z"/>
	<path fill="#FFFFFF" d="M138.166,63.854c0,0,3.263-1.363,2.086-4.934c-0.271-0.826-1.301-3.119-5.409-2.129
		c-0.941,0.229-6.507,2.623-6.507,2.623s-1.733,0.641-1.526,1.342c0.166,0.568,1.049,0.271,1.609,0.051v10.029
		c-0.014,0.33-0.096,0.852-0.475,0.906c-0.559,0.084-1.137,0.062-1.137,0.723c0,0.662,0.273,0.662,0.537,0.662h1.076h4.706h4.729
		c0,0,3.587-0.559,3.717-5.164C141.677,64.33,138.166,63.854,138.166,63.854z M133.128,59c0-0.412,1.012-1.115,1.941-1.135
		c0.929-0.02,0.971,1.135,0.971,1.135s0.145,1.26,0,2.934c-0.145,1.672-0.888,1.982-1.855,2.107
		c-0.967,0.123-1.057-0.455-1.057-0.455V59L133.128,59z M136.37,69.76c-0.152,1.773-1.16,1.955-2.188,2.086
		c-1.024,0.131-1.056-0.709-1.056-0.709v-5.355c0-0.438,1.072-0.688,2.058-0.709c0.986-0.021,1.145,1.197,1.145,1.197
		S136.522,67.986,136.37,69.76z"/>
	<path fill="#FFFFFF" d="M157.646,47.25c-0.055,0-0.104,0.016-0.153,0.031l-0.003-0.004l-0.025,0.01
		c-0.019,0.008-0.035,0.014-0.054,0.023l-6.192,2.74v0.01c-0.213,0.061-0.371,0.256-0.371,0.496c0,0.273,0.209,0.492,0.471,0.516
		c0.005,0.002,0.009,0.012,0.014,0.014c0.02,0.002,0.049,0.004,0.084,0.006l0.754,0.008l-0.162,19.48l-0.002,0.213l-0.002,0.006
		c-0.062,0.873-0.783,1.562-1.672,1.562s-1.609-0.691-1.672-1.562l-0.016-18.297c-0.018-0.311,0.804-0.625,0.815-0.645
		c0.224-0.074,0.384-0.283,0.384-0.537c0-0.312-0.246-0.57-0.553-0.57c-0.055,0-0.104,0.018-0.154,0.033l-0.002-0.004l-0.025,0.012
		c-0.02,0.006-0.036,0.012-0.055,0.021l-6.688,2.742l-0.001,0.008c-0.213,0.061-0.37,0.256-0.37,0.496
		c0,0.273,0.208,0.492,0.469,0.516c0.006,0.002,0.01,0.012,0.016,0.012c0.201,0.033,1.637,0,1.637,0v13.379h0.041
		c0.35,3.148,3.018,5.596,6.258,5.596c3.312,0,6.021-2.557,6.271-5.803h0.025V50.752c0,0,0.002-0.979,0.006-1.424
		c0.006-0.445,1.086-0.951,1.1-0.971c0.222-0.074,0.384-0.281,0.384-0.535C158.199,47.504,157.952,47.25,157.646,47.25z"/>
	<path fill="#FFFFFF" d="M181.261,63.369c-0.018-0.238-0.109-0.799-0.621-0.119c-0.635,1.145-2.682,5.988-3.707,8.439
		c-0.133,0.191-0.322,0.354-0.598,0.354c-0.469,0-0.566-0.484-0.583-0.791v-0.244V42.326h-0.013c0-0.275,0.018-0.615,0.095-0.811
		c0.177-0.443,0.905-0.801,0.919-0.818c0.221-0.076,0.385-0.283,0.385-0.537c0-0.314-0.248-0.57-0.555-0.57
		c-0.055,0-0.104,0.018-0.154,0.033l-0.002-0.004l-0.026,0.01c-0.019,0.008-0.037,0.014-0.054,0.023l-6.688,2.742v0.008
		c-0.212,0.061-0.371,0.256-0.371,0.494c0,0.273,0.207,0.494,0.47,0.516c0.006,0.004,0.01,0.012,0.014,0.014
		c0.103,0.016,0.516,0.016,0.902,0.012v28.086c-0.021,0.049-0.046,0.086-0.068,0.119c-0.014,0.012-0.021,0.027-0.034,0.039
		c-0.007,0.006-0.011,0.012-0.017,0.016c-0.359,0.27-1.267,0.279-1.285,0.291c-0.231-0.023-0.465,0.098-0.57,0.328
		c-0.13,0.287-0.012,0.621,0.268,0.748c0.051,0.023,0.103,0.029,0.154,0.035c0,0.002,0,0.006,0,0.006h0.027
		c0.021,0.002,0.039,0.004,0.06,0.002l1.198,0.016v0.002h0.268v0.002h5.08v-0.002h0.586l-0.002,0.002l0.829-0.002h0.037v-0.002
		l3.28-0.01c0,0,0.783-0.123,0.783-0.881c0-0.992-0.008-8.834-0.008-8.834S181.259,63.387,181.261,63.369z"/>
	<path fill="#FFFFFF" d="M167.222,71.99c-0.018-0.01-0.888-0.023-1.258-0.277V46.766v-0.568h-0.012
		c0.005-0.242,0.027-0.506,0.094-0.668c0.176-0.443,0.904-0.799,0.918-0.82c0.221-0.074,0.385-0.279,0.385-0.535
		c0-0.312-0.248-0.568-0.555-0.568c-0.055,0-0.104,0.018-0.154,0.033l-0.002-0.006l-0.024,0.012
		c-0.021,0.006-0.037,0.014-0.056,0.021l-6.688,2.742c0,0-0.001,0.006-0.001,0.008c-0.212,0.062-0.371,0.256-0.371,0.494
		c0,0.277,0.208,0.496,0.47,0.52c0.006,0.002,0.01,0.01,0.016,0.012c0.102,0.018,0.515,0.018,0.9,0.014v24.193
		c-0.308,0.316-1.313,0.334-1.332,0.346c-0.231-0.023-0.467,0.098-0.572,0.328c-0.129,0.285-0.012,0.621,0.269,0.746
		c0.05,0.021,0.103,0.029,0.153,0.037c0.002,0,0.002,0.004,0.002,0.004l0.025,0.002c0.021,0.002,0.041,0.002,0.06,0.002l1.396,0.016
		l0,0h0.069h4.869h0.142v-0.002l1.322-0.014c0.02,0,0.039-0.002,0.061-0.004h0.026c0,0,0-0.004,0-0.006
		c0.054-0.006,0.104-0.014,0.154-0.035c0.278-0.127,0.397-0.461,0.269-0.748C167.688,72.088,167.455,71.967,167.222,71.99z"/>
	<path fill="#FFFFFF" d="M194.068,32.351c-0.613,0.172-6.048,2.455-10.103,4.17h-0.078v0.033c-2.463,1.043-4.399,1.868-4.399,1.868
		s-0.784,0.125-0.784,0.882c0,0.99,0.006,8.834,0.006,8.834s-0.001,0.012-0.002,0.031c0.018,0.234,0.109,0.797,0.621,0.115
		c0.857-1.547,3.834-9.875,3.834-9.875s0.264-0.521,0.725-0.501v33.837c-0.397,0.219-1.182,0.232-1.197,0.242
		c-0.232-0.023-0.467,0.1-0.57,0.328c-0.131,0.287-0.013,0.623,0.268,0.748c0.049,0.023,0.103,0.029,0.153,0.035
		c0,0.002,0,0.006,0,0.006h0.028c0.02,0.002,0.039,0.004,0.059,0.002l1.262,0.016v-0.002h5.494l0,0l1.244-0.014
		c0.021,0.002,0.04,0,0.059-0.002h0.027l0.002-0.006c0.053-0.006,0.104-0.012,0.153-0.035c0.276-0.127,0.397-0.461,0.269-0.748
		c-0.105-0.23-0.34-0.352-0.571-0.328c-0.017-0.01-0.779-0.023-1.183-0.234V36.533c-0.021-0.465,0.195-0.93,0.754-0.59
		c0.682,0.418,3.902,6.633,3.902,6.633s0.744,1.422,0.96-0.25v-9.512C194.998,32.814,195.06,32.072,194.068,32.351z"/>
</g>
</svg>
