<?xml version="1.0" encoding="utf-8"?>
<!-- Generator: Adobe Illustrator 16.0.0, SVG Export Plug-In . SVG Version: 6.00 Build 0)  -->
<!DOCTYPE svg PUBLIC "-//W3C//DTD SVG 1.1//EN" "http://www.w3.org/Graphics/SVG/1.1/DTD/svg11.dtd">
<svg version="1.1" id="Layer_1" xmlns="http://www.w3.org/2000/svg" xmlns:xlink="http://www.w3.org/1999/xlink" x="0px" y="0px"
	 width="300px" height="66px" viewBox="0 0 300 66" enable-background="new 0 0 300 66" xml:space="preserve">
<g enable-background="new    ">
	<path fill="#FFFFFF" d="M53.336,22.803c1.408,0.393,2.606,0.843,3.597,1.35c0.99,0.507,1.825,1.035,2.504,1.583
		c0.679,0.548,1.215,1.109,1.608,1.681c0.393,0.573,0.695,1.121,0.909,1.645c0.212,0.524,0.347,1.011,0.405,1.461
		c0.057,0.451,0.086,0.831,0.086,1.142c0,1.145-0.217,2.169-0.651,3.068c-0.434,0.9-1.019,1.694-1.755,2.382
		c-0.737,0.687-1.592,1.268-2.565,1.742c-0.974,0.476-1.993,0.863-3.057,1.166c-1.063,0.303-2.152,0.524-3.264,0.662
		c-1.113,0.14-2.169,0.209-3.167,0.209c-1.62,0-3.294-0.163-5.02-0.491c-1.727-0.327-3.473-0.859-5.241-1.596
		c-0.393-0.162-0.589-0.449-0.589-0.858c0-0.278,0.098-0.504,0.294-0.676s0.409-0.257,0.638-0.257c0.115,0,0.237,0.023,0.368,0.073
		c1.522,0.638,3.085,1.121,4.688,1.448c1.604,0.327,3.216,0.491,4.836,0.491c2.209,0,4.108-0.212,5.696-0.639
		c1.587-0.425,2.892-0.985,3.915-1.681c1.022-0.695,1.78-1.481,2.271-2.357c0.491-0.875,0.737-1.763,0.737-2.664
		c0-0.997-0.274-1.922-0.823-2.774c-0.548-0.851-1.325-1.611-2.332-2.283c-1.006-0.671-2.213-1.244-3.621-1.718
		c-1.408-0.475-2.971-0.826-4.688-1.055c-1.129,0.196-2.226,0.335-3.29,0.417c-1.064,0.082-2.046,0.123-2.946,0.123h-0.564
		c-0.115,0-0.221-0.008-0.319-0.024c-1.178,2.831-2.582,5.277-4.21,7.34c-1.629,2.061-3.363,3.768-5.205,5.118
		c-1.84,1.35-3.731,2.349-5.67,2.995c-1.939,0.646-3.801,0.969-5.584,0.969c-1.849,0-3.547-0.257-5.094-0.772
		c-1.546-0.516-2.876-1.248-3.989-2.197s-1.98-2.099-2.602-3.448c-0.623-1.351-0.933-2.861-0.933-4.529
		c0-1.735,0.339-3.531,1.019-5.389c0.679-1.857,1.689-3.744,3.031-5.658c1.276-1.801,2.692-3.417,4.247-4.849
		c1.554-1.431,3.187-2.688,4.897-3.768c1.709-1.08,3.473-2.004,5.29-2.774c1.816-0.769,3.621-1.399,5.413-1.89
		s3.543-0.847,5.253-1.068c1.709-0.221,3.318-0.332,4.824-0.332c1.228,0,2.397,0.042,3.51,0.124
		c1.112,0.082,2.176,0.204,3.191,0.368c0.589-0.654,1.064-1.125,1.424-1.412c0.359-0.286,0.564-0.446,0.613-0.479
		c0.197-0.098,0.368-0.147,0.516-0.147c0.229,0,0.434,0.066,0.614,0.197c0.18,0.131,0.27,0.319,0.27,0.565
		c0,0.327-0.115,0.601-0.344,0.822c-0.229,0.221-0.54,0.52-0.933,0.896c2.995,0.737,5.286,1.846,6.874,3.326
		c1.587,1.481,2.381,3.31,2.381,5.487c0,1.194-0.196,2.267-0.589,3.215c-0.393,0.95-0.929,1.784-1.607,2.504
		c-0.679,0.721-1.473,1.347-2.381,1.878C55.312,21.997,54.351,22.443,53.336,22.803z M48.034,6.307
		C47.2,6.192,46.34,6.11,45.456,6.062c-0.883-0.049-1.808-0.074-2.773-0.074c-1.44,0-2.971,0.107-4.591,0.319
		c-1.62,0.213-3.281,0.548-4.983,1.007c-1.703,0.458-3.417,1.051-5.143,1.78c-1.727,0.728-3.404,1.604-5.032,2.626
		c-1.628,1.023-3.179,2.213-4.651,3.572c-1.473,1.359-2.815,2.888-4.026,4.591c-1.227,1.735-2.152,3.444-2.774,5.13
		c-0.622,1.686-0.933,3.29-0.933,4.811c0,1.424,0.258,2.701,0.773,3.83c0.515,1.13,1.248,2.082,2.197,2.859s2.086,1.375,3.412,1.793
		c1.326,0.417,2.79,0.626,4.394,0.626c1.604,0,3.273-0.291,5.008-0.872c1.734-0.581,3.428-1.474,5.081-2.676
		c1.653-1.202,3.224-2.725,4.713-4.566s2.79-4.03,3.904-6.567c-0.295,0-0.598-0.085-0.909-0.257s-0.466-0.446-0.466-0.823
		c0-0.392,0.188-0.674,0.564-0.846c0.376-0.172,0.965-0.316,1.768-0.43c0.442-1.342,0.892-2.684,1.35-4.026
		c0.458-1.341,0.965-2.667,1.522-3.977c0.556-1.309,1.169-2.598,1.841-3.866C46.373,8.758,47.15,7.518,48.034,6.307z M49.139,21.993
		c0.72-0.131,1.46-0.303,2.222-0.516c0.761-0.212,1.505-0.471,2.234-0.773c0.728-0.303,1.419-0.663,2.074-1.08
		c0.655-0.417,1.224-0.908,1.706-1.473c0.483-0.564,0.868-1.198,1.154-1.902c0.286-0.704,0.429-1.505,0.429-2.406
		c0-1.833-0.761-3.346-2.283-4.541c-1.522-1.195-3.707-2.079-6.554-2.652c-0.818,1.015-1.587,2.135-2.308,3.363
		c-0.72,1.228-1.383,2.5-1.988,3.817c-0.606,1.318-1.15,2.651-1.632,4.002c-0.483,1.349-0.88,2.655-1.191,3.915
		c0.328-0.016,0.63-0.024,0.909-0.024c0.278,0,0.515,0,0.711,0c0.638,0,1.334,0.021,2.086,0.062
		C47.461,21.825,48.271,21.895,49.139,21.993z"/>
</g>
<g enable-background="new    ">
	<path fill="#FFFFFF" d="M83.041,33.015c-0.065,0.131-0.2,0.405-0.405,0.823c-0.205,0.416-0.466,0.896-0.786,1.436
		c-0.319,0.54-0.691,1.104-1.117,1.693c-0.426,0.589-0.9,1.13-1.424,1.621c-0.524,0.49-1.088,0.896-1.694,1.215
		c-0.606,0.319-1.244,0.479-1.915,0.479c-0.949,0-1.747-0.303-2.393-0.909c-0.647-0.604-1.117-1.365-1.412-2.282
		c-0.557,0.934-1.22,1.674-1.988,2.222c-0.77,0.549-1.539,0.822-2.308,0.822c-0.605,0-1.153-0.11-1.645-0.331
		c-0.491-0.222-0.908-0.531-1.252-0.933c-0.343-0.401-0.609-0.872-0.797-1.412c-0.188-0.54-0.283-1.129-0.283-1.767
		c0-1.277,0.217-2.402,0.651-3.376c0.434-0.973,0.986-1.788,1.657-2.442c0.671-0.654,1.412-1.145,2.222-1.473
		c0.81-0.327,1.591-0.49,2.344-0.49c0.507,0,0.974,0.07,1.399,0.208c0.425,0.139,0.79,0.291,1.093,0.454
		c0.302,0.165,0.536,0.316,0.699,0.454c0.164,0.14,0.253,0.217,0.27,0.234c0.18,0.212,0.27,0.434,0.27,0.662
		c0,0.245-0.09,0.462-0.27,0.651c-0.18,0.188-0.393,0.282-0.638,0.282c-0.262,0-0.483-0.09-0.663-0.27
		c-0.033-0.033-0.107-0.094-0.221-0.184c-0.115-0.09-0.27-0.185-0.466-0.282c-0.196-0.099-0.43-0.185-0.7-0.258
		s-0.577-0.11-0.92-0.11c-0.508,0-1.048,0.115-1.62,0.344c-0.573,0.229-1.097,0.585-1.571,1.068
		c-0.475,0.483-0.872,1.088-1.19,1.816c-0.319,0.729-0.479,1.592-0.479,2.589c0,0.312,0.032,0.626,0.098,0.945
		s0.18,0.61,0.344,0.871c0.164,0.263,0.384,0.476,0.663,0.64c0.278,0.163,0.622,0.245,1.031,0.245c0.294,0,0.634-0.099,1.019-0.295
		c0.384-0.196,0.752-0.499,1.104-0.908c0.352-0.408,0.671-0.925,0.957-1.546c0.287-0.622,0.487-1.359,0.602-2.21
		c0.032-0.229,0.139-0.421,0.319-0.577c0.18-0.156,0.393-0.234,0.638-0.234c0.229,0,0.43,0.091,0.602,0.27
		c0.171,0.18,0.266,0.385,0.282,0.614c0.016,0.311,0.049,0.749,0.098,1.313s0.16,1.126,0.331,1.682
		c0.172,0.557,0.43,1.04,0.774,1.448c0.344,0.409,0.818,0.614,1.424,0.614c0.392,0,0.781-0.106,1.166-0.319
		c0.384-0.212,0.761-0.494,1.129-0.848c0.368-0.351,0.72-0.752,1.056-1.202c0.335-0.45,0.642-0.904,0.92-1.363
		c0.278-0.458,0.523-0.899,0.737-1.325c0.212-0.425,0.393-0.793,0.54-1.104c0.082-0.18,0.2-0.319,0.355-0.418
		c0.156-0.097,0.323-0.146,0.503-0.146c0.278,0,0.503,0.102,0.675,0.306c0.172,0.206,0.258,0.422,0.258,0.651
		C83.115,32.786,83.09,32.9,83.041,33.015z"/>
	<path fill="#FFFFFF" d="M95.315,33.063c-0.18,0.377-0.405,0.823-0.675,1.339c-0.27,0.515-0.577,1.051-0.92,1.607
		s-0.729,1.108-1.154,1.656c-0.425,0.55-0.888,1.041-1.387,1.474c-0.5,0.434-1.031,0.785-1.596,1.056
		c-0.564,0.271-1.166,0.405-1.804,0.405c-0.982,0-1.825-0.303-2.529-0.908s-1.301-1.4-1.792-2.382
		c-0.491-0.981-0.888-2.099-1.19-3.351s-0.537-2.528-0.699-3.829c-0.164-1.301-0.274-2.565-0.332-3.793
		c-0.058-1.227-0.086-2.315-0.086-3.265c0-1.375,0.045-2.798,0.135-4.271c0.09-1.473,0.233-2.914,0.43-4.321
		c0.196-1.408,0.446-2.742,0.749-4.002c0.303-1.259,0.663-2.364,1.08-3.313s0.896-1.702,1.437-2.259
		c0.54-0.556,1.153-0.834,1.841-0.834c0.54,0,1.027,0.126,1.461,0.38c0.433,0.254,0.797,0.667,1.092,1.24
		c0.295,0.573,0.524,1.318,0.688,2.234c0.164,0.917,0.246,2.038,0.246,3.364c0,1.636-0.172,3.326-0.516,5.069
		c-0.343,1.742-0.81,3.498-1.399,5.265c-0.589,1.767-1.285,3.531-2.087,5.29c-0.802,1.76-1.661,3.474-2.577,5.143
		c0.409,2.079,0.957,3.711,1.644,4.897c0.688,1.187,1.514,1.779,2.48,1.779c0.654,0,1.284-0.257,1.89-0.772
		c0.605-0.517,1.162-1.126,1.669-1.83c0.507-0.703,0.953-1.419,1.338-2.147c0.385-0.728,0.683-1.312,0.896-1.755
		c0.082-0.163,0.196-0.291,0.344-0.381c0.147-0.09,0.311-0.134,0.491-0.134c0.278,0,0.503,0.097,0.675,0.294
		c0.172,0.196,0.258,0.417,0.258,0.663C95.414,32.769,95.381,32.9,95.315,33.063z M83.017,23.196c0,1.048,0.024,2.054,0.073,3.02
		s0.114,1.89,0.196,2.774c0.688-1.326,1.342-2.737,1.964-4.235c0.622-1.497,1.17-3.011,1.645-4.542
		c0.475-1.53,0.855-3.052,1.141-4.566c0.286-1.514,0.43-2.958,0.43-4.333c0-1.931-0.155-3.313-0.466-4.148s-0.729-1.252-1.252-1.252
		c-0.343,0-0.675,0.238-0.994,0.711c-0.319,0.476-0.618,1.122-0.896,1.94c-0.278,0.818-0.532,1.783-0.761,2.897
		c-0.229,1.112-0.422,2.307-0.577,3.584c-0.156,1.276-0.278,2.609-0.368,4.001C83.062,20.438,83.017,21.821,83.017,23.196z"/>
	<path fill="#FFFFFF" d="M107.614,33.063c-0.18,0.377-0.405,0.823-0.675,1.339c-0.27,0.515-0.577,1.051-0.92,1.607
		s-0.729,1.108-1.154,1.656c-0.425,0.55-0.888,1.041-1.387,1.474c-0.5,0.434-1.031,0.785-1.596,1.056
		c-0.564,0.271-1.166,0.405-1.804,0.405c-0.982,0-1.825-0.303-2.529-0.908c-0.704-0.605-1.301-1.4-1.792-2.382
		s-0.888-2.099-1.19-3.351s-0.537-2.528-0.699-3.829c-0.164-1.301-0.274-2.565-0.332-3.793c-0.058-1.227-0.086-2.315-0.086-3.265
		c0-1.375,0.045-2.798,0.135-4.271c0.09-1.473,0.233-2.914,0.43-4.321c0.196-1.408,0.446-2.742,0.749-4.002
		c0.303-1.259,0.663-2.364,1.08-3.313s0.896-1.702,1.437-2.259c0.54-0.556,1.153-0.834,1.841-0.834c0.54,0,1.027,0.126,1.46,0.38
		c0.434,0.254,0.798,0.667,1.092,1.24c0.295,0.573,0.524,1.318,0.688,2.234c0.164,0.917,0.246,2.038,0.246,3.364
		c0,1.636-0.172,3.326-0.516,5.069c-0.344,1.742-0.81,3.498-1.399,5.265c-0.589,1.767-1.285,3.531-2.087,5.29
		c-0.802,1.76-1.661,3.474-2.577,5.143c0.409,2.079,0.957,3.711,1.644,4.897c0.688,1.187,1.514,1.779,2.48,1.779
		c0.654,0,1.284-0.257,1.89-0.772c0.606-0.517,1.162-1.126,1.669-1.83c0.507-0.703,0.953-1.419,1.338-2.147
		c0.385-0.728,0.683-1.312,0.896-1.755c0.082-0.163,0.196-0.291,0.344-0.381c0.147-0.09,0.311-0.134,0.491-0.134
		c0.278,0,0.503,0.097,0.675,0.294c0.172,0.196,0.258,0.417,0.258,0.663C107.712,32.769,107.679,32.9,107.614,33.063z
		 M95.315,23.196c0,1.048,0.024,2.054,0.073,3.02s0.114,1.89,0.196,2.774c0.688-1.326,1.342-2.737,1.964-4.235
		c0.622-1.497,1.17-3.011,1.645-4.542c0.475-1.53,0.855-3.052,1.141-4.566c0.286-1.514,0.43-2.958,0.43-4.333
		c0-1.931-0.156-3.313-0.466-4.148c-0.311-0.835-0.729-1.252-1.252-1.252c-0.343,0-0.675,0.238-0.994,0.711
		c-0.319,0.476-0.618,1.122-0.896,1.94c-0.278,0.818-0.532,1.783-0.761,2.897c-0.229,1.112-0.422,2.307-0.577,3.584
		c-0.156,1.276-0.278,2.609-0.368,4.001C95.36,20.438,95.315,21.821,95.315,23.196z"/>
	<path fill="#FFFFFF" d="M124.92,33.015c-0.065,0.131-0.2,0.405-0.405,0.823c-0.205,0.416-0.466,0.896-0.786,1.436
		c-0.319,0.54-0.691,1.104-1.117,1.693c-0.426,0.589-0.9,1.13-1.424,1.621c-0.524,0.49-1.088,0.896-1.694,1.215
		c-0.606,0.319-1.244,0.479-1.915,0.479c-0.949,0-1.747-0.303-2.394-0.909c-0.647-0.604-1.117-1.365-1.412-2.282
		c-0.556,0.934-1.22,1.674-1.988,2.222c-0.77,0.549-1.539,0.822-2.308,0.822c-0.605,0-1.153-0.11-1.645-0.331
		c-0.491-0.222-0.908-0.531-1.252-0.933c-0.343-0.401-0.609-0.872-0.797-1.412c-0.188-0.54-0.283-1.129-0.283-1.767
		c0-1.277,0.217-2.402,0.651-3.376c0.434-0.973,0.986-1.788,1.657-2.442c0.671-0.654,1.412-1.145,2.222-1.473
		c0.81-0.327,1.591-0.49,2.344-0.49c0.507,0,0.974,0.07,1.399,0.208c0.425,0.139,0.79,0.291,1.093,0.454
		c0.302,0.165,0.536,0.316,0.699,0.454c0.164,0.14,0.253,0.217,0.27,0.234c0.18,0.212,0.27,0.434,0.27,0.662
		c0,0.245-0.09,0.462-0.27,0.651c-0.18,0.188-0.393,0.282-0.638,0.282c-0.262,0-0.483-0.09-0.663-0.27
		c-0.033-0.033-0.107-0.094-0.221-0.184c-0.115-0.09-0.27-0.185-0.466-0.282c-0.196-0.099-0.43-0.185-0.7-0.258
		s-0.577-0.11-0.92-0.11c-0.508,0-1.048,0.115-1.62,0.344c-0.573,0.229-1.097,0.585-1.571,1.068
		c-0.475,0.483-0.872,1.088-1.191,1.816c-0.319,0.729-0.479,1.592-0.479,2.589c0,0.312,0.032,0.626,0.098,0.945
		s0.18,0.61,0.344,0.871c0.164,0.263,0.384,0.476,0.663,0.64c0.278,0.163,0.622,0.245,1.031,0.245c0.294,0,0.634-0.099,1.019-0.295
		c0.384-0.196,0.752-0.499,1.104-0.908c0.352-0.408,0.671-0.925,0.957-1.546c0.287-0.622,0.487-1.359,0.602-2.21
		c0.033-0.229,0.139-0.421,0.319-0.577c0.18-0.156,0.393-0.234,0.638-0.234c0.229,0,0.43,0.091,0.602,0.27
		c0.171,0.18,0.266,0.385,0.282,0.614c0.016,0.311,0.049,0.749,0.098,1.313s0.16,1.126,0.332,1.682
		c0.171,0.557,0.429,1.04,0.773,1.448c0.344,0.409,0.818,0.614,1.424,0.614c0.392,0,0.781-0.106,1.166-0.319
		c0.384-0.212,0.761-0.494,1.129-0.848c0.368-0.351,0.72-0.752,1.056-1.202c0.335-0.45,0.642-0.904,0.92-1.363
		c0.278-0.458,0.523-0.899,0.737-1.325c0.212-0.425,0.393-0.793,0.54-1.104c0.082-0.18,0.2-0.319,0.355-0.418
		c0.156-0.097,0.323-0.146,0.503-0.146c0.278,0,0.503,0.102,0.675,0.306c0.172,0.206,0.258,0.422,0.258,0.651
		C124.994,32.786,124.969,32.9,124.92,33.015z"/>
	<path fill="#FFFFFF" d="M125.804,29.775c-0.065,0.441-0.147,0.855-0.245,1.239c-0.099,0.385-0.193,0.721-0.282,1.006
		c-0.09,0.287-0.168,0.521-0.233,0.7c-0.066,0.18-0.106,0.278-0.123,0.295c-0.163,0.376-0.45,0.564-0.859,0.564
		c-0.229,0-0.441-0.085-0.638-0.257c-0.196-0.172-0.295-0.388-0.295-0.65c0-0.099,0.017-0.173,0.049-0.221
		c0.033-0.049,0.082-0.147,0.147-0.295c0.065-0.146,0.147-0.392,0.246-0.736c0.098-0.344,0.221-0.875,0.368-1.596
		c-0.279,0-0.565-0.007-0.859-0.024c-0.295-0.016-0.569-0.074-0.823-0.172c-0.253-0.099-0.462-0.253-0.626-0.466
		c-0.163-0.213-0.246-0.507-0.246-0.884c0-0.277,0.078-0.654,0.233-1.129c0.156-0.474,0.364-0.94,0.626-1.398
		s0.556-0.855,0.883-1.191c0.328-0.335,0.654-0.503,0.982-0.503c0.376,0,0.683,0.139,0.92,0.417
		c0.237,0.278,0.421,0.618,0.552,1.019c0.131,0.401,0.225,0.823,0.283,1.264c0.057,0.442,0.086,0.827,0.086,1.154
		c0.277,0,0.552-0.004,0.822-0.012c0.27-0.008,0.527-0.013,0.773-0.013c0.933,0,1.645,0.205,2.136,0.614
		c0.491,0.41,0.736,1.08,0.736,2.014c0,0.376-0.024,0.769-0.074,1.177c-0.049,0.41-0.106,0.832-0.172,1.264
		c-0.065,0.435-0.123,0.863-0.172,1.289c-0.049,0.427-0.073,0.844-0.073,1.252c0,0.59,0.082,1.076,0.245,1.461
		s0.368,0.691,0.614,0.92c0.245,0.229,0.507,0.39,0.785,0.479c0.278,0.091,0.532,0.136,0.761,0.136c0.704,0,1.366-0.229,1.989-0.688
		c0.622-0.458,1.194-1.01,1.719-1.656c0.523-0.646,0.994-1.33,1.411-2.05c0.417-0.721,0.765-1.351,1.043-1.891
		c0.082-0.147,0.196-0.261,0.343-0.344c0.147-0.082,0.303-0.123,0.466-0.123c0.295,0,0.524,0.095,0.688,0.282
		c0.163,0.188,0.245,0.397,0.245,0.626c0,0.164-0.033,0.312-0.098,0.442c-0.376,0.671-0.814,1.428-1.313,2.271
		c-0.5,0.844-1.068,1.632-1.707,2.368s-1.354,1.359-2.148,1.866c-0.794,0.507-1.666,0.762-2.614,0.762
		c-0.589,0-1.146-0.111-1.669-0.332s-0.978-0.54-1.362-0.957c-0.385-0.417-0.691-0.933-0.92-1.547
		c-0.229-0.613-0.344-1.305-0.344-2.074c0-0.818,0.082-1.633,0.246-2.443c0.163-0.81,0.245-1.583,0.245-2.319
		c0-0.311-0.069-0.544-0.208-0.7c-0.139-0.155-0.446-0.233-0.921-0.233c-0.229,0-0.478,0-0.749,0
		C126.406,29.75,126.115,29.758,125.804,29.775z M124.16,27.958c0-0.114-0.004-0.267-0.013-0.454
		c-0.008-0.188-0.024-0.373-0.049-0.553c-0.024-0.18-0.057-0.335-0.098-0.466c-0.041-0.131-0.085-0.197-0.135-0.197
		c-0.049,0-0.111,0.061-0.184,0.185c-0.074,0.123-0.151,0.27-0.233,0.441c-0.083,0.172-0.156,0.356-0.221,0.553
		c-0.065,0.196-0.115,0.36-0.147,0.491H124.16z"/>
	<path fill="#FFFFFF" d="M147.996,32.72c0.801,3.781,1.964,5.67,3.485,5.67c0.59,0,1.154-0.216,1.694-0.649
		c0.54-0.435,1.044-0.967,1.51-1.596c0.466-0.631,0.88-1.298,1.24-2.002c0.359-0.703,0.654-1.317,0.883-1.84
		c0.163-0.393,0.45-0.589,0.86-0.589c0.261,0,0.481,0.097,0.662,0.294c0.18,0.196,0.27,0.409,0.27,0.638
		c0,0.131-0.024,0.245-0.073,0.344c-0.114,0.279-0.282,0.65-0.503,1.117s-0.491,0.966-0.811,1.497
		c-0.318,0.532-0.675,1.076-1.068,1.633c-0.392,0.557-0.826,1.055-1.3,1.497c-0.476,0.442-0.979,0.807-1.511,1.093
		c-0.531,0.285-1.092,0.43-1.681,0.43c-1.097,0-2.038-0.381-2.823-1.142c-0.786-0.762-1.465-2.018-2.037-3.768
		c-0.786,1.669-1.58,2.88-2.381,3.632c-0.802,0.753-1.669,1.13-2.603,1.13c-0.491,0-0.966-0.078-1.424-0.233
		s-0.859-0.413-1.203-0.772c-0.344-0.36-0.622-0.823-0.835-1.388c-0.212-0.564-0.319-1.256-0.319-2.074
		c0-1.129,0.196-2.168,0.589-3.118c0.393-0.949,0.9-1.764,1.522-2.442c0.622-0.679,1.313-1.207,2.074-1.583
		c0.761-0.376,1.518-0.565,2.271-0.565c0.246,0,0.458,0.086,0.639,0.258c0.18,0.172,0.27,0.389,0.27,0.65
		c0,0.229-0.073,0.434-0.221,0.614s-0.344,0.286-0.589,0.319c-0.491,0.065-1.015,0.22-1.571,0.466
		c-0.557,0.245-1.068,0.601-1.534,1.068c-0.467,0.466-0.851,1.06-1.154,1.78c-0.303,0.72-0.454,1.58-0.454,2.577
		c0,0.819,0.167,1.457,0.503,1.915c0.335,0.458,0.822,0.688,1.46,0.688c0.261,0,0.54-0.07,0.834-0.209s0.609-0.413,0.945-0.822
		c0.335-0.408,0.704-0.99,1.104-1.743c0.401-0.752,0.847-1.742,1.338-2.97c-0.278-1.439-0.532-3.101-0.761-4.983
		c-0.229-1.882-0.343-3.984-0.343-6.309c0-1.014,0.032-2.074,0.098-3.179c0.065-1.104,0.172-2.185,0.319-3.241
		c0.147-1.055,0.344-2.057,0.589-3.006c0.246-0.949,0.543-1.784,0.896-2.503c0.352-0.721,0.765-1.29,1.239-1.707
		c0.475-0.417,1.015-0.626,1.62-0.626c0.54,0,0.999,0.147,1.375,0.441c0.376,0.294,0.684,0.704,0.92,1.228
		c0.237,0.524,0.413,1.154,0.528,1.89c0.113,0.736,0.171,1.546,0.171,2.431c0,1.898-0.163,3.796-0.49,5.695
		c-0.328,1.898-0.732,3.715-1.215,5.45s-0.995,3.339-1.535,4.811C148.928,30.388,148.437,31.657,147.996,32.72z M150.867,12.934
		c0-0.408-0.013-0.851-0.037-1.325c-0.023-0.475-0.081-0.92-0.172-1.337c-0.09-0.418-0.208-0.765-0.355-1.044
		c-0.147-0.277-0.343-0.417-0.589-0.417c-0.409,0-0.789,0.36-1.141,1.08s-0.659,1.666-0.92,2.835
		c-0.262,1.17-0.471,2.496-0.626,3.977c-0.156,1.481-0.233,2.974-0.233,4.479c0,1.44,0.057,2.881,0.171,4.32
		c0.114,1.44,0.246,2.725,0.393,3.854c0.475-1.259,0.924-2.557,1.351-3.89c0.425-1.334,0.797-2.696,1.117-4.087
		c0.319-1.392,0.572-2.795,0.761-4.21C150.772,15.754,150.867,14.342,150.867,12.934z"/>
</g>
<g enable-background="new    ">
	<path fill="#FFFFFF" d="M213.172,15.635c0,1.98-0.376,3.752-1.13,5.314c-0.753,1.563-1.816,2.889-3.19,3.977
		c-1.376,1.088-3.02,1.923-4.935,2.504c-1.915,0.581-4.025,0.872-6.333,0.872c-0.279,0-0.521-0.078-0.725-0.233
		c-0.205-0.156-0.308-0.389-0.308-0.7c0-0.245,0.091-0.458,0.271-0.638c0.179-0.18,0.4-0.27,0.662-0.27
		c2.062,0,3.944-0.237,5.646-0.711c1.702-0.475,3.159-1.174,4.37-2.099c1.211-0.924,2.151-2.058,2.823-3.4
		c0.671-1.342,1.006-2.88,1.006-4.615c0-1.768-0.389-3.339-1.166-4.713s-1.865-2.537-3.264-3.486c-1.4-0.949-3.069-1.67-5.008-2.16
		c-1.939-0.491-4.072-0.736-6.396-0.736c-2.193,0-4.317,0.18-6.37,0.54c-2.054,0.36-3.981,0.867-5.781,1.522s-3.44,1.44-4.922,2.356
		c-1.481,0.917-2.75,1.923-3.805,3.02c-1.056,1.096-1.878,2.271-2.467,3.523c-0.59,1.252-0.884,2.548-0.884,3.89
		c0,1.179,0.204,2.209,0.613,3.093c0.409,0.884,0.953,1.625,1.632,2.222c0.68,0.598,1.461,1.044,2.344,1.338
		c0.885,0.294,1.81,0.442,2.775,0.442c1.145,0,2.164-0.123,3.056-0.369c0.892-0.245,1.645-0.516,2.259-0.81
		c0.613-0.294,1.084-0.568,1.411-0.822s0.508-0.396,0.541-0.43c0.18-0.18,0.392-0.271,0.637-0.271c0.246,0,0.463,0.095,0.651,0.282
		c0.188,0.188,0.282,0.405,0.282,0.651c0,0.277-0.099,0.499-0.294,0.662c-0.034,0.033-0.242,0.205-0.626,0.515
		c-0.385,0.312-0.942,0.651-1.67,1.019c-0.729,0.369-1.616,0.7-2.664,0.995s-2.242,0.442-3.583,0.442
		c-1.228,0-2.401-0.205-3.523-0.614c-1.12-0.41-2.103-1.002-2.946-1.78c-0.842-0.776-1.514-1.718-2.012-2.822
		c-0.499-1.105-0.749-2.353-0.749-3.744c0-1.522,0.314-2.99,0.945-4.407c0.63-1.415,1.513-2.741,2.651-3.976
		c1.137-1.236,2.499-2.366,4.087-3.388s3.347-1.898,5.277-2.626c1.932-0.728,4.002-1.293,6.211-1.694
		c2.209-0.401,4.501-0.602,6.873-0.602c2.603,0,4.992,0.295,7.169,0.884c2.176,0.589,4.046,1.44,5.609,2.553
		c1.562,1.112,2.777,2.466,3.645,4.062C212.738,11.793,213.172,13.606,213.172,15.635z M198.59,9.792
		c0.246,0,0.462,0.086,0.65,0.258c0.188,0.171,0.283,0.396,0.283,0.675c0,0.164-0.046,0.312-0.135,0.441
		c-0.092,0.132-0.201,0.254-0.333,0.369c-0.916,0.72-1.648,1.497-2.196,2.332c-0.549,0.835-0.966,1.73-1.252,2.688
		c-0.287,0.957-0.475,1.976-0.564,3.056s-0.135,2.209-0.135,3.387v3.094c0,2.029-0.181,3.956-0.541,5.78
		c-0.36,1.826-0.969,3.425-1.828,4.8c-0.859,1.374-2.009,2.467-3.448,3.277c-1.441,0.81-3.249,1.215-5.426,1.215
		c-0.982,0-1.943-0.119-2.885-0.355c-0.94-0.238-1.829-0.582-2.664-1.032c-0.834-0.449-1.603-1.002-2.307-1.656
		s-1.31-1.391-1.816-2.21c-0.033-0.065-0.065-0.143-0.099-0.233c-0.033-0.089-0.048-0.175-0.048-0.257
		c0-0.229,0.085-0.438,0.257-0.626s0.396-0.282,0.675-0.282c0.164,0,0.315,0.045,0.454,0.135s0.258,0.2,0.356,0.331
		c1.047,1.457,2.233,2.55,3.559,3.277c1.326,0.729,2.832,1.093,4.518,1.093c1.931,0,3.506-0.355,4.726-1.068
		c1.218-0.711,2.177-1.686,2.871-2.921c0.696-1.234,1.17-2.679,1.425-4.333c0.253-1.653,0.381-3.412,0.381-5.278v-3.118
		c0-1.096,0.048-2.23,0.146-3.4c0.099-1.169,0.323-2.315,0.676-3.436c0.352-1.121,0.858-2.186,1.521-3.191
		c0.662-1.007,1.559-1.895,2.688-2.664c0.064-0.032,0.146-0.065,0.245-0.098C198.442,9.809,198.524,9.792,198.59,9.792z"/>
</g>
<g enable-background="new    ">
	<path fill="#FFFFFF" d="M225.62,33.015c-0.065,0.131-0.2,0.405-0.404,0.823c-0.206,0.416-0.467,0.896-0.786,1.436
		c-0.318,0.54-0.691,1.104-1.117,1.693s-0.9,1.13-1.423,1.621c-0.523,0.49-1.089,0.896-1.694,1.215s-1.244,0.479-1.915,0.479
		c-0.949,0-1.747-0.303-2.393-0.909c-0.647-0.604-1.118-1.365-1.412-2.282c-0.557,0.934-1.22,1.674-1.988,2.222
		c-0.77,0.549-1.538,0.822-2.307,0.822c-0.606,0-1.154-0.11-1.646-0.331c-0.49-0.222-0.908-0.531-1.252-0.933
		s-0.609-0.872-0.797-1.412c-0.188-0.54-0.282-1.129-0.282-1.767c0-1.277,0.217-2.402,0.65-3.376
		c0.434-0.973,0.986-1.788,1.657-2.442c0.67-0.654,1.411-1.145,2.221-1.473c0.811-0.327,1.592-0.49,2.345-0.49
		c0.507,0,0.973,0.07,1.399,0.208c0.426,0.139,0.789,0.291,1.093,0.454c0.302,0.165,0.535,0.316,0.699,0.454
		c0.163,0.14,0.254,0.217,0.271,0.234c0.18,0.212,0.27,0.434,0.27,0.662c0,0.245-0.09,0.462-0.27,0.651
		c-0.18,0.188-0.394,0.282-0.639,0.282c-0.262,0-0.483-0.09-0.663-0.27c-0.032-0.033-0.106-0.094-0.221-0.184
		c-0.114-0.09-0.27-0.185-0.467-0.282c-0.196-0.099-0.429-0.185-0.699-0.258s-0.577-0.11-0.92-0.11c-0.508,0-1.048,0.115-1.62,0.344
		c-0.574,0.229-1.098,0.585-1.571,1.068c-0.476,0.483-0.871,1.088-1.19,1.816c-0.32,0.729-0.479,1.592-0.479,2.589
		c0,0.312,0.033,0.626,0.099,0.945c0.064,0.319,0.18,0.61,0.344,0.871c0.163,0.263,0.384,0.476,0.663,0.64
		c0.278,0.163,0.622,0.245,1.03,0.245c0.295,0,0.634-0.099,1.02-0.295c0.383-0.196,0.752-0.499,1.104-0.908
		c0.353-0.408,0.671-0.925,0.958-1.546c0.287-0.622,0.487-1.359,0.602-2.21c0.032-0.229,0.139-0.421,0.318-0.577
		c0.181-0.156,0.394-0.234,0.64-0.234c0.228,0,0.429,0.091,0.601,0.27c0.172,0.18,0.267,0.385,0.282,0.614
		c0.016,0.311,0.049,0.749,0.099,1.313c0.049,0.564,0.158,1.126,0.331,1.682c0.171,0.557,0.43,1.04,0.773,1.448
		c0.343,0.409,0.817,0.614,1.424,0.614c0.393,0,0.78-0.106,1.166-0.319c0.384-0.212,0.761-0.494,1.128-0.848
		c0.369-0.351,0.721-0.752,1.058-1.202c0.334-0.45,0.641-0.904,0.919-1.363c0.279-0.458,0.524-0.899,0.737-1.325
		c0.212-0.425,0.393-0.793,0.54-1.104c0.082-0.18,0.199-0.319,0.355-0.418c0.156-0.097,0.323-0.146,0.504-0.146
		c0.278,0,0.503,0.102,0.675,0.306c0.172,0.206,0.257,0.422,0.257,0.651C225.693,32.786,225.67,32.9,225.62,33.015z"/>
	<path fill="#FFFFFF" d="M239.981,33.063c-0.099,0.181-0.267,0.509-0.503,0.983c-0.238,0.474-0.558,1.01-0.958,1.607
		c-0.401,0.597-0.88,1.215-1.436,1.854c-0.557,0.638-1.195,1.223-1.915,1.754c-0.72,0.532-1.526,0.97-2.418,1.314
		c-0.893,0.344-1.862,0.516-2.908,0.516c-0.934,0-1.761-0.168-2.48-0.504c-0.721-0.336-1.333-0.811-1.841-1.424
		s-0.893-1.338-1.154-2.173c-0.262-0.834-0.393-1.759-0.393-2.772c0-0.983,0.14-1.904,0.418-2.763
		c0.277-0.859,0.657-1.607,1.141-2.246c0.482-0.639,1.044-1.142,1.683-1.51c0.637-0.368,1.317-0.553,2.037-0.553
		c0.539,0,1.03,0.095,1.473,0.283c0.442,0.188,0.814,0.438,1.117,0.75c0.303,0.31,0.54,0.654,0.712,1.031
		c0.171,0.376,0.258,0.752,0.258,1.129c0,0.359-0.046,0.695-0.136,1.006c-0.089,0.311-0.204,0.585-0.344,0.823
		c-0.139,0.237-0.299,0.425-0.479,0.564c-0.181,0.14-0.36,0.208-0.539,0.208c-0.278,0-0.504-0.089-0.676-0.269
		c-0.171-0.18-0.258-0.401-0.258-0.663c0-0.131,0.029-0.245,0.087-0.344c0.057-0.099,0.122-0.201,0.195-0.308
		c0.073-0.106,0.139-0.237,0.196-0.392c0.058-0.156,0.086-0.357,0.086-0.602c0-0.344-0.159-0.655-0.478-0.933
		c-0.32-0.278-0.725-0.417-1.216-0.417c-0.458,0-0.896,0.139-1.313,0.417c-0.417,0.278-0.781,0.65-1.092,1.117
		c-0.312,0.466-0.562,1.015-0.75,1.645c-0.188,0.631-0.282,1.297-0.282,2.001c0,0.671,0.082,1.31,0.246,1.915
		c0.163,0.605,0.408,1.141,0.736,1.607c0.327,0.466,0.74,0.839,1.239,1.117s1.093,0.417,1.78,0.417c0.883,0,1.702-0.16,2.454-0.479
		c0.753-0.319,1.44-0.725,2.062-1.216c0.622-0.49,1.17-1.026,1.646-1.607c0.474-0.58,0.879-1.129,1.215-1.645
		c0.334-0.516,0.597-0.965,0.785-1.351c0.188-0.384,0.299-0.626,0.331-0.724c0.065-0.163,0.177-0.291,0.332-0.381
		c0.154-0.09,0.322-0.134,0.503-0.134c0.277,0,0.503,0.097,0.675,0.294c0.172,0.196,0.259,0.417,0.259,0.663
		C240.08,32.769,240.047,32.9,239.981,33.063z"/>
	<path fill="#FFFFFF" d="M242.313,20.594c0,0.622-0.218,1.149-0.651,1.583c-0.434,0.434-0.961,0.65-1.582,0.65
		c-0.622,0-1.15-0.216-1.585-0.65c-0.433-0.434-0.649-0.961-0.649-1.583c0-0.311,0.058-0.601,0.172-0.872
		c0.114-0.27,0.273-0.507,0.478-0.712c0.205-0.205,0.442-0.364,0.713-0.479s0.56-0.172,0.872-0.172c0.31,0,0.601,0.058,0.871,0.172
		c0.27,0.114,0.507,0.274,0.711,0.479c0.205,0.205,0.364,0.442,0.479,0.712C242.256,19.993,242.313,20.283,242.313,20.594z
		 M238.337,34.979c0-2.356,0.147-4.705,0.44-7.045c0.034-0.228,0.136-0.429,0.308-0.601s0.396-0.258,0.676-0.258
		c0.245,0,0.449,0.095,0.612,0.282c0.164,0.188,0.246,0.405,0.246,0.65c0,0.098-0.021,0.393-0.061,0.884
		c-0.042,0.492-0.091,1.077-0.148,1.755c-0.058,0.679-0.105,1.4-0.146,2.161c-0.041,0.76-0.062,1.461-0.062,2.099
		c0,0.867,0.086,1.566,0.258,2.099s0.393,0.945,0.663,1.24c0.27,0.294,0.556,0.49,0.858,0.589s0.593,0.146,0.872,0.146
		c0.458,0,0.932-0.162,1.424-0.49c0.491-0.327,0.994-0.786,1.51-1.374c0.516-0.59,1.034-1.298,1.56-2.124
		c0.522-0.826,1.038-1.747,1.545-2.762c0.082-0.163,0.197-0.291,0.344-0.381c0.147-0.09,0.312-0.134,0.491-0.134
		c0.262,0,0.479,0.097,0.651,0.294c0.171,0.196,0.257,0.409,0.257,0.638c0,0.164-0.032,0.303-0.098,0.417
		c-0.196,0.377-0.441,0.835-0.737,1.376c-0.293,0.539-0.63,1.096-1.007,1.669c-0.376,0.572-0.789,1.141-1.238,1.706
		c-0.451,0.564-0.929,1.071-1.437,1.521c-0.507,0.451-1.04,0.814-1.596,1.093c-0.557,0.277-1.121,0.417-1.693,0.417
		c-0.736,0-1.384-0.155-1.939-0.467c-0.558-0.311-1.027-0.728-1.411-1.252c-0.385-0.523-0.672-1.141-0.859-1.854
		C238.431,36.562,238.337,35.797,238.337,34.979z M240.938,20.594c0-0.229-0.085-0.429-0.257-0.601s-0.372-0.258-0.601-0.258
		c-0.23,0-0.427,0.086-0.59,0.258c-0.164,0.172-0.245,0.373-0.245,0.601c0,0.229,0.081,0.426,0.245,0.589
		c0.163,0.164,0.359,0.246,0.59,0.246c0.229,0,0.429-0.082,0.601-0.246C240.853,21.02,240.938,20.823,240.938,20.594z"/>
	<path fill="#FFFFFF" d="M250.782,41.066c1.211-0.539,2.312-1.162,3.301-1.865c0.99-0.703,1.874-1.444,2.652-2.222
		c0.776-0.776,1.44-1.57,1.988-2.382c0.548-0.81,0.986-1.583,1.312-2.319c0.017-0.032,0.029-0.061,0.037-0.086
		c0.008-0.024,0.028-0.053,0.062-0.085c0.065-1.375,0.188-2.766,0.368-4.174c0.033-0.228,0.136-0.429,0.308-0.601
		c0.171-0.172,0.396-0.258,0.675-0.258c0.245,0,0.449,0.095,0.613,0.282c0.163,0.188,0.246,0.405,0.246,0.65
		c0,0.098-0.021,0.393-0.062,0.884c-0.042,0.492-0.09,1.077-0.147,1.755c-0.058,0.679-0.106,1.4-0.147,2.161
		c-0.04,0.76-0.061,1.461-0.061,2.099c0,0.867,0.085,1.566,0.257,2.099s0.393,0.945,0.663,1.24c0.271,0.294,0.557,0.49,0.859,0.589
		s0.593,0.146,0.871,0.146c0.459,0,0.933-0.162,1.424-0.49c0.491-0.327,0.994-0.786,1.51-1.374c0.516-0.59,1.035-1.298,1.559-2.124
		s1.039-1.747,1.546-2.762c0.082-0.163,0.197-0.291,0.344-0.381c0.147-0.09,0.312-0.134,0.491-0.134
		c0.262,0,0.479,0.097,0.651,0.294c0.171,0.196,0.257,0.409,0.257,0.638c0,0.164-0.032,0.303-0.097,0.417
		c-0.197,0.377-0.442,0.835-0.737,1.376c-0.295,0.539-0.63,1.096-1.007,1.669c-0.377,0.572-0.79,1.141-1.239,1.706
		c-0.45,0.564-0.929,1.071-1.436,1.521c-0.509,0.451-1.041,0.814-1.596,1.093c-0.558,0.277-1.122,0.417-1.694,0.417
		c-0.671,0-1.269-0.127-1.792-0.38c-0.524-0.255-0.97-0.602-1.338-1.044s-0.663-0.965-0.884-1.57
		c-0.222-0.605-0.364-1.261-0.43-1.965c-0.852,1.229-1.943,2.414-3.277,3.561c-1.334,1.145-2.981,2.176-4.946,3.092
		c0.884,0.917,1.652,1.936,2.308,3.057c0.654,1.121,1.198,2.287,1.633,3.498c0.433,1.211,0.76,2.434,0.981,3.67
		c0.221,1.235,0.332,2.418,0.332,3.547c0,1.031-0.095,2.001-0.282,2.909c-0.189,0.908-0.467,1.697-0.836,2.369
		c-0.368,0.671-0.813,1.199-1.337,1.583c-0.524,0.385-1.121,0.577-1.793,0.577c-0.98,0-1.742-0.364-2.283-1.092
		c-0.539-0.729-0.936-1.735-1.19-3.02c-0.253-1.285-0.401-2.799-0.44-4.542c-0.042-1.743-0.062-3.638-0.062-5.683
		c0-1.015,0-2.197,0-3.547c0-1.351,0.004-2.799,0.012-4.346c0.008-1.546,0.017-3.167,0.024-4.86s0.021-3.391,0.037-5.094
		c0.017-1.701,0.032-3.375,0.049-5.02c0.016-1.645,0.04-3.204,0.073-4.676c0.05-2.815,0.148-5.327,0.296-7.537
		c0.146-2.209,0.384-4.075,0.711-5.597c0.327-1.522,0.773-2.68,1.338-3.474c0.564-0.794,1.28-1.19,2.148-1.19
		c0.688,0,1.268,0.192,1.743,0.577c0.474,0.385,0.858,0.9,1.153,1.546s0.507,1.403,0.639,2.271c0.13,0.867,0.196,1.775,0.196,2.725
		c0,1.997-0.172,3.928-0.516,5.793c-0.344,1.865-0.81,3.674-1.399,5.425c-0.589,1.751-1.281,3.461-2.074,5.13
		c-0.794,1.67-1.641,3.314-2.541,4.934c0,0.672,0,1.396,0,2.173c0,0.777,0,1.556,0,2.332c0,0.777-0.004,1.521-0.012,2.234
		C250.786,39.925,250.782,40.543,250.782,41.066z M250.782,44.086c0,1.031-0.004,1.992-0.013,2.885
		c-0.008,0.892-0.012,1.706-0.012,2.442c0,1.522,0.008,3.027,0.024,4.517s0.094,2.827,0.232,4.014
		c0.14,1.187,0.353,2.144,0.639,2.872c0.286,0.728,0.7,1.093,1.239,1.093c0.492,0,0.893-0.221,1.204-0.663
		c0.31-0.442,0.552-0.966,0.724-1.571c0.171-0.605,0.29-1.224,0.356-1.853c0.064-0.631,0.097-1.142,0.097-1.534
		c0-0.999-0.094-2.047-0.282-3.143c-0.188-1.097-0.474-2.182-0.857-3.253c-0.385-1.072-0.856-2.107-1.412-3.104
		C252.164,45.788,251.519,44.888,250.782,44.086z M250.855,28.695c0.671-1.26,1.289-2.59,1.854-3.99
		c0.564-1.398,1.051-2.843,1.461-4.333c0.409-1.489,0.728-3.011,0.957-4.566c0.229-1.555,0.344-3.118,0.344-4.689
		c0-0.785-0.037-1.497-0.11-2.135c-0.073-0.638-0.188-1.182-0.344-1.633c-0.155-0.449-0.352-0.801-0.59-1.055
		c-0.236-0.254-0.511-0.381-0.821-0.381c-0.328,0-0.614,0.196-0.859,0.589c-0.245,0.393-0.459,0.917-0.639,1.571
		s-0.331,1.408-0.454,2.259c-0.122,0.851-0.225,1.738-0.306,2.664c-0.083,0.924-0.148,1.849-0.197,2.773
		c-0.049,0.925-0.086,1.792-0.11,2.603c-0.025,0.81-0.041,1.526-0.05,2.148c-0.008,0.623-0.012,1.089-0.012,1.399
		c-0.016,0.655-0.028,1.236-0.036,1.743c-0.01,0.507-0.021,1.007-0.037,1.497c-0.017,0.491-0.029,1.015-0.037,1.571
		C250.859,27.287,250.855,27.942,250.855,28.695z M264.037,20.594c0,0.622-0.216,1.149-0.649,1.583
		c-0.434,0.434-0.962,0.65-1.583,0.65c-0.622,0-1.149-0.216-1.584-0.65c-0.434-0.434-0.65-0.961-0.65-1.583
		c0-0.311,0.058-0.601,0.172-0.872c0.114-0.27,0.273-0.507,0.479-0.712c0.204-0.205,0.441-0.364,0.712-0.479
		s0.561-0.172,0.872-0.172c0.311,0,0.601,0.058,0.871,0.172c0.27,0.114,0.507,0.274,0.712,0.479
		c0.204,0.205,0.363,0.442,0.479,0.712C263.979,19.993,264.037,20.283,264.037,20.594z M262.663,20.594
		c0-0.229-0.086-0.429-0.258-0.601s-0.372-0.258-0.601-0.258c-0.23,0-0.426,0.086-0.59,0.258s-0.246,0.373-0.246,0.601
		c0,0.229,0.082,0.426,0.246,0.589c0.164,0.164,0.359,0.246,0.59,0.246c0.229,0,0.429-0.082,0.601-0.246
		C262.577,21.02,262.663,20.823,262.663,20.594z"/>
	<path fill="#FFFFFF" d="M286.646,33.063c-0.099,0.181-0.266,0.509-0.503,0.983c-0.238,0.474-0.557,1.01-0.957,1.607
		c-0.401,0.597-0.881,1.215-1.436,1.854c-0.558,0.638-1.195,1.223-1.915,1.754c-0.721,0.532-1.527,0.97-2.419,1.314
		c-0.892,0.344-1.861,0.516-2.908,0.516c-0.933,0-1.76-0.168-2.48-0.504s-1.333-0.811-1.84-1.424
		c-0.508-0.613-0.892-1.338-1.154-2.173c-0.262-0.834-0.393-1.759-0.393-2.772c0-0.983,0.139-1.904,0.417-2.763
		s0.658-1.607,1.142-2.246c0.481-0.639,1.043-1.142,1.682-1.51c0.639-0.368,1.317-0.553,2.038-0.553c0.539,0,1.03,0.095,1.473,0.283
		c0.442,0.188,0.813,0.438,1.116,0.75c0.303,0.31,0.541,0.654,0.712,1.031c0.173,0.376,0.258,0.752,0.258,1.129
		c0,0.359-0.045,0.695-0.135,1.006c-0.09,0.311-0.205,0.585-0.344,0.823c-0.139,0.237-0.299,0.425-0.478,0.564
		c-0.182,0.14-0.36,0.208-0.541,0.208c-0.278,0-0.503-0.089-0.675-0.269s-0.258-0.401-0.258-0.663c0-0.131,0.028-0.245,0.086-0.344
		s0.122-0.201,0.196-0.308c0.072-0.106,0.139-0.237,0.196-0.392c0.057-0.156,0.086-0.357,0.086-0.602
		c0-0.344-0.159-0.655-0.479-0.933c-0.319-0.278-0.725-0.417-1.215-0.417c-0.459,0-0.896,0.139-1.313,0.417
		c-0.418,0.278-0.782,0.65-1.092,1.117c-0.312,0.466-0.562,1.015-0.75,1.645c-0.188,0.631-0.282,1.297-0.282,2.001
		c0,0.671,0.082,1.31,0.246,1.915c0.163,0.605,0.408,1.141,0.735,1.607c0.327,0.466,0.741,0.839,1.24,1.117s1.093,0.417,1.78,0.417
		c0.883,0,1.701-0.16,2.454-0.479c0.753-0.319,1.44-0.725,2.062-1.216c0.621-0.49,1.169-1.026,1.645-1.607
		c0.474-0.58,0.88-1.129,1.215-1.645s0.598-0.965,0.786-1.351c0.188-0.384,0.299-0.626,0.331-0.724
		c0.065-0.163,0.176-0.291,0.332-0.381c0.154-0.09,0.323-0.134,0.503-0.134c0.277,0,0.504,0.097,0.674,0.294
		c0.173,0.196,0.259,0.417,0.259,0.663C286.745,32.769,286.712,32.9,286.646,33.063z"/>
</g>
</svg>
