<?xml version="1.0" encoding="utf-8"?>
<!-- Generator: Adobe Illustrator 15.0.0, SVG Export Plug-In . SVG Version: 6.00 Build 0)  -->
<!DOCTYPE svg PUBLIC "-//W3C//DTD SVG 1.1//EN" "http://www.w3.org/Graphics/SVG/1.1/DTD/svg11.dtd">
<svg version="1.1" id="Layer_1" xmlns="http://www.w3.org/2000/svg" xmlns:xlink="http://www.w3.org/1999/xlink" x="0px" y="0px"
	 width="24px" height="24px" viewBox="0 0 24 24" enable-background="new 0 0 24 24" xml:space="preserve">
<path id="magnifier-icon" fill="#424242" d="M23.745,20.757l-6.267-6.266c0.916-1.444,1.447-3.155,1.447-4.988
	c0.001-5.147-4.188-9.336-9.336-9.336S0.254,4.355,0.254,9.503s4.188,9.336,9.336,9.336c1.742,0,3.374-0.479,4.771-1.313
	l6.308,6.308L23.745,20.757z M3.734,9.503c0-3.229,2.627-5.856,5.856-5.856s5.856,2.627,5.856,5.856s-2.629,5.856-5.856,5.856
	C6.361,15.359,3.734,12.732,3.734,9.503z"/>
</svg>
