<?xml version="1.0" encoding="utf-8"?>
<!-- Generator: Adobe Illustrator 16.0.0, SVG Export Plug-In . SVG Version: 6.00 Build 0)  -->
<!DOCTYPE svg PUBLIC "-//W3C//DTD SVG 1.1//EN" "http://www.w3.org/Graphics/SVG/1.1/DTD/svg11.dtd">
<svg version="1.1" id="Layer_1" xmlns="http://www.w3.org/2000/svg" xmlns:xlink="http://www.w3.org/1999/xlink" x="0px" y="0px"
	 width="34px" height="24px" viewBox="239 244 34 24" enable-background="new 239 244 34 24" xml:space="preserve">
<path id="youtube-new-icon" fill="#F02338" d="M272.213,249.927c-0.519-4.41-2.267-5.017-5.745-5.254
	c-4.945-0.337-15.986-0.337-20.936,0c-3.478,0.237-5.226,0.844-5.745,5.254c-0.385,3.273-0.387,8.862,0,12.146
	c0.519,4.409,2.267,5.018,5.745,5.254c4.95,0.337,15.99,0.337,20.936,0c3.479-0.236,5.227-0.845,5.745-5.254
	C272.598,258.799,272.6,253.212,272.213,249.927z M252.714,260.607v-9.205l8.827,4.603L252.714,260.607z"/>
</svg>
