<?xml version="1.0" encoding="utf-8"?>
<!-- Generator: Adobe Illustrator 16.0.0, SVG Export Plug-In . SVG Version: 6.00 Build 0)  -->
<!DOCTYPE svg PUBLIC "-//W3C//DTD SVG 1.1//EN" "http://www.w3.org/Graphics/SVG/1.1/DTD/svg11.dtd">
<svg version="1.1" xmlns="http://www.w3.org/2000/svg" xmlns:xlink="http://www.w3.org/1999/xlink" x="0px" y="0px" width="34px"
	 height="34px" viewBox="0 0 34 34" enable-background="new 0 0 34 34" xml:space="preserve">
<g id="Layer_2">
	<rect x="9" y="8.75" fill="#FFFFFF" width="17" height="15.25"/>
</g>
<g id="Layer_1">
	<path id="youtube-new-icon_2_" fill="#F02338" d="M33.213,10.427c-0.519-4.41-2.267-5.017-5.745-5.254
		c-4.945-0.337-15.986-0.337-20.936,0C3.055,5.41,1.307,6.017,0.788,10.427c-0.385,3.273-0.387,8.862,0,12.146
		c0.519,4.409,2.267,5.018,5.745,5.254c4.95,0.337,15.99,0.337,20.936,0c3.479-0.236,5.227-0.845,5.745-5.254
		C33.598,19.299,33.6,13.713,33.213,10.427z M13.714,21.107v-9.205l8.827,4.604L13.714,21.107z"/>
</g>
</svg>
